<?xml version="1.0" encoding="UTF-8" standalone="no"?>
<!-- Created with Inkscape (http://www.inkscape.org/) -->

<svg
   xmlns:dc="http://purl.org/dc/elements/1.1/"
   xmlns:cc="http://creativecommons.org/ns#"
   xmlns:rdf="http://www.w3.org/1999/02/22-rdf-syntax-ns#"
   xmlns:svg="http://www.w3.org/2000/svg"
   xmlns="http://www.w3.org/2000/svg"
   xmlns:sodipodi="http://sodipodi.sourceforge.net/DTD/sodipodi-0.dtd"
   xmlns:inkscape="http://www.inkscape.org/namespaces/inkscape"
   width="680.31494"
   height="765.35431"
   id="svg2"
   version="1.1"
   inkscape:version="0.48.4 r"
   sodipodi:docname="kinect-mount.svg">
  <defs
     id="defs4">
    <inkscape:path-effect
       effect="spiro"
       id="path-effect3006"
       is_visible="true" />
  </defs>
  <sodipodi:namedview
     id="base"
     pagecolor="#ffffff"
     bordercolor="#666666"
     borderopacity="1.0"
     inkscape:pageopacity="0.0"
     inkscape:pageshadow="2"
     inkscape:zoom="0.35"
     inkscape:cx="58.088565"
     inkscape:cy="684.73344"
     inkscape:document-units="mm"
     inkscape:current-layer="layer1"
     showgrid="true"
     units="mm"
     fit-margin-top="0"
     fit-margin-left="0"
     fit-margin-right="0"
     fit-margin-bottom="0"
     showborder="true"
     showguides="true"
     inkscape:guide-bbox="true"
     inkscape:showpageshadow="true"
     inkscape:object-paths="true"
     inkscape:object-nodes="true"
     inkscape:snap-smooth-nodes="true"
     inkscape:snap-intersection-paths="true"
     inkscape:snap-page="true"
     inkscape:snap-global="true"
     inkscape:window-width="983"
     inkscape:window-height="719"
     inkscape:window-x="1722"
     inkscape:window-y="335"
     inkscape:window-maximized="0">
    <inkscape:grid
       type="xygrid"
       id="grid2985"
       empspacing="2"
       visible="true"
       enabled="true"
       snapvisiblegridlinesonly="true"
       originx="281.03429mm"
       originy="195.03319mm"
       units="mm"
       spacingx="1mm"
       spacingy="1mm" />
    <sodipodi:guide
       orientation="1,0"
       position="-595.15409,825.70815"
       id="guide3829" />
    <sodipodi:guide
       orientation="1,0"
       position="-84.91787,832.79475"
       id="guide3831" />
    <sodipodi:guide
       orientation="1,0"
       position="-340.036,1406.8106"
       id="guide3833" />
    <sodipodi:guide
       orientation="0,1"
       position="-442.7919,1300.5114"
       id="guide3835" />
    <sodipodi:guide
       orientation="0,1"
       position="-208.93362,960.35382"
       id="guide3841" />
    <sodipodi:guide
       orientation="0,1"
       position="-637.6738,829.25145"
       id="guide3002" />
  </sodipodi:namedview>
  <metadata
     id="metadata7">
    <rdf:RDF>
      <cc:Work
         rdf:about="">
        <dc:format>image/svg+xml</dc:format>
        <dc:type
           rdf:resource="http://purl.org/dc/dcmitype/StillImage" />
        <dc:title />
      </cc:Work>
    </rdf:RDF>
  </metadata>
  <g
     inkscape:label="Layer 1"
     inkscape:groupmode="layer"
     id="layer1"
     transform="translate(-150.9375,-100.36444)">
    <path
       style="fill:#333333;fill-opacity:1;stroke:#ff0000;stroke-width:0;stroke-linecap:round;stroke-linejoin:round;stroke-miterlimit:4;stroke-opacity:1;stroke-dasharray:none;stroke-dashoffset:0"
       d="m 299.82778,100.32268 -7.15615,5.15618 -7.65613,-4.37494 -6.59366,5.87492 -8.06238,-3.56245 -5.93741,6.53115 -8.40613,-2.68746 -5.21867,7.1249 -8.62487,-1.81248 -4.43744,7.62489 -8.78112,-0.87499 -3.62494,8.03113 -8.81237,0.0312 -2.78126,8.37488 -8.74987,0.96874 -1.87497,8.62487 -8.62488,1.87497 -0.96868,8.74987 -8.37488,2.78121 -0.031,8.81237 -8.03108,3.62495 0.87499,8.78112 -7.62489,4.43743 1.81247,8.62488 -7.12489,5.21867 2.68746,8.40612 -6.53111,5.93742 3.56235,8.06238 -5.87491,6.5624 4.37493,7.65614 -5.15612,7.18739 5.15612,7.15615 -4.37493,7.65613 5.87491,6.56241 -3.56235,8.06238 6.53111,5.93741 -2.68746,8.40613 7.12489,5.21867 -1.81247,8.62487 7.62489,4.43744 -0.87499,8.78112 8.03108,3.6249 0.031,8.81238 8.37488,2.7812 0.96868,8.7499 8.62488,1.875 1.87497,8.6248 8.74987,0.9688 2.78126,8.3748 8.81237,0.031 3.62494,8.0312 8.78112,-0.875 4.43744,7.6249 8.62487,-1.8125 5.21867,7.1249 8.40613,-2.6875 5.93741,6.5312 8.06238,-3.5625 6.59366,5.875 7.65613,-4.375 7.15615,5.1562 7.15614,-5.1562 7.65614,4.375 6.5624,-5.875 8.09363,3.5625 5.90617,-6.5312 8.40612,2.6875 5.21867,-7.1249 8.62488,1.8125 4.46868,-7.6249 8.74987,0.875 3.62495,-8.0312 8.84362,-0.031 2.74996,-8.3748 8.74987,-0.9688 1.87497,-8.6248 8.62487,-1.875 0.96874,-8.7499 8.37488,-2.7812 0.0312,-8.81238 8.03114,-3.6249 -0.87499,-8.78112 7.62489,-4.43744 -1.78123,-8.62487 7.09365,-5.21867 -2.68746,-8.40613 6.53115,-5.93741 -3.56245,-8.06238 5.87492,-6.56241 -4.37494,-7.65613 5.15618,-7.15615 -5.15618,-7.18739 4.37494,-7.65614 -5.87492,-6.5624 3.56245,-8.06238 -6.53115,-5.93742 2.68746,-8.40612 -7.09365,-5.21867 1.78123,-8.62488 -7.62489,-4.43743 0.87499,-8.78112 -8.03114,-3.62495 -0.0312,-8.81237 -8.37488,-2.78121 -0.96874,-8.74987 -8.62487,-1.87497 -1.87497,-8.62487 -8.74987,-0.96874 -2.74996,-8.37488 -8.84362,-0.0312 -3.62495,-8.03113 -8.74987,0.87499 -4.46868,-7.62489 -8.62488,1.81248 -5.21867,-7.1249 -8.40612,2.68746 -5.90617,-6.53115 -8.09363,3.56245 -6.5624,-5.87492 -7.65614,4.37494 -7.15614,-5.15618 z m 0,73.53017 c 92.12464,0 95.64279,3.55039 99.18603,7.09364 3.54325,3.54325 7.09365,7.08947 7.09365,61.1241 0,54.03464 -3.5504,57.54959 -7.09365,61.09285 -3.54324,3.54326 -7.06139,7.09364 -99.18603,7.09364 -92.12464,0 -95.67399,-3.55038 -99.21734,-7.09364 -3.54325,-3.54326 -7.09359,-7.05821 -7.09359,-61.09285 0,-54.03463 3.55034,-57.58085 7.09359,-61.1241 3.54335,-3.54325 7.0927,-7.09364 99.21734,-7.09364 z"
       id="path3800"
       inkscape:connector-curvature="0" />
    <path
       style="fill:#333333;stroke:none"
       d="m -189.0985,-516.28864 c 81.49606,0 74.40948,38.97638 166.535461,81.49606 92.125985,42.51969 173.556589,120.54803 173.556589,248.10708 l 0,170.078738 c 0,10.6299211 -7.08661,17.7165356 -17.71653,17.7165356 l -49.606305,0 c -10.629921,0 -17.716533,-7.0866145 -17.716532,-17.7165356 3e-6,-162.992138 3.608774,-333.146448 -255.052653,-333.146448 -258.66143,0 -255.11813,162.99216 -255.11812,333.070905 0,10.6299206 -7.15206,17.7920786 -17.78199,17.7920786 l -49.60629,0 c -10.62993,0 -17.71653,-7.086615 -17.71653,-17.7165356 l 0,-177.165358 c 0,-148.8189 81.56151,-198.50077 173.6875,-241.02046 92.12599,-42.51969 85.03934,-81.49606 166.5354,-81.49606 z"
       id="path2987"
       inkscape:connector-curvature="0"
       sodipodi:nodetypes="zzccccczccccczz" />
    <path
       transform="matrix(1.4117647,0,0,1.6,1689.2057,332.40899)"
       d="m -1300.3937,-478.34647 c 0,14.67686 -13.4844,26.57481 -30.1181,26.57481 -16.6338,0 -30.1182,-11.89795 -30.1182,-26.57481 0,-14.67685 13.4844,-26.5748 30.1182,-26.5748 16.6337,0 30.1181,11.89795 30.1181,26.5748 z"
       sodipodi:ry="26.574802"
       sodipodi:rx="30.118111"
       sodipodi:cy="-478.34647"
       sodipodi:cx="-1330.5118"
       id="path3847"
       style="opacity:0.5;fill:#00ff00;fill-opacity:1;stroke:none"
       sodipodi:type="arc" />
    <rect
       style="fill:#e6e6e6;fill-opacity:1;stroke:none"
       id="rect3775"
       width="21.259842"
       height="148.81889"
       x="-497.43164"
       y="-172.51227" />
    <rect
       y="-172.51227"
       x="97.843948"
       height="148.81889"
       width="21.259842"
       id="rect3777"
       style="fill:#e6e6e6;fill-opacity:1;stroke:none" />
    <path
       style="fill:#333333;fill-opacity:1;stroke:none"
       d="m 225.46846,-238.13903 c 3.5433,-3.54331 7.0866,-7.08661 99.2126,-7.08661 92.126,0 95.6693,3.5433 99.2126,7.08661 3.5433,3.54331 7.0866,7.08662 7.0866,61.12205 0,54.03544 -3.5433,57.57874 -7.0866,61.12205 -3.5433,3.54331 -7.0866,7.08661 -99.2126,7.08661 -92.126,0 -95.6693,-3.5433 -99.2126,-7.08661 -3.5433,-3.54331 -7.0866,-7.08661 -7.0866,-61.12205 0,-54.03543 3.5433,-57.57874 7.0866,-61.12205 z"
       id="rect3785"
       inkscape:connector-curvature="0"
       sodipodi:nodetypes="zzzzzzzzz" />
    <path
       transform="matrix(1.0469565,0,0,1.0469565,1624.4413,-745.58967)"
       d="m -835.33878,472.84589 -4.91717,6.83703 4.17557,7.31356 -5.6049,6.28559 3.38822,7.70997 -6.23122,5.66529 2.56375,8.02189 -6.78927,4.98291 1.7112,8.24594 -7.27294,4.24594 0.83988,8.37964 -7.67691,3.46245 -0.0406,8.42152 -7.99679,2.64103 -0.92069,8.37114 -8.22904,1.79067 -1.79067,8.22904 -8.37114,0.92069 -2.64103,7.99679 -8.42152,0.0406 -3.46246,7.67691 -8.37963,-0.83988 -4.24594,7.27294 -8.24594,-1.7112 -4.98291,6.78928 -8.02189,-2.56376 -5.66529,6.23123 -7.70997,-3.38823 -6.28559,5.6049 -7.31356,-4.17557 -6.83703,4.91718 -6.83704,-4.91718 -7.31356,4.17557 -6.28559,-5.6049 -7.70997,3.38823 -5.66525,-6.23123 -8.0219,2.56376 -4.9829,-6.78928 -8.246,1.7112 -4.2459,-7.27294 -8.3797,0.83988 -3.4624,-7.67691 -8.4215,-0.0406 -2.6411,-7.99679 -8.3711,-0.92069 -1.7907,-8.22904 -8.229,-1.79067 -0.9207,-8.37114 -7.9968,-2.64103 -0.041,-8.42152 -7.6769,-3.46245 0.8399,-8.37964 -7.273,-4.24594 1.7112,-8.24594 -6.7893,-4.98291 2.5638,-8.02189 -6.2312,-5.66529 3.3882,-7.70997 -5.6049,-6.28559 4.1756,-7.31356 -4.9172,-6.83703 4.9172,-6.83704 -4.1756,-7.31356 5.6049,-6.28559 -3.3882,-7.70997 6.2312,-5.66528 -2.5638,-8.0219 6.7893,-4.98291 -1.7112,-8.24594 7.273,-4.24594 -0.8399,-8.37963 7.6769,-3.46246 0.041,-8.42152 7.9968,-2.64103 0.9207,-8.37114 8.229,-1.79067 1.7907,-8.22904 8.3711,-0.92069 2.6411,-7.99679 8.4215,-0.0406 3.4624,-7.67691 8.3797,0.83988 4.2459,-7.27293 8.246,1.71119 4.9829,-6.78927 8.0219,2.56375 5.66525,-6.23122 7.70997,3.38822 6.28559,-5.6049 7.31356,4.17558 6.83704,-4.91718 6.83703,4.91718 7.31356,-4.17558 6.28559,5.6049 7.70997,-3.38822 5.66529,6.23122 8.02189,-2.56375 4.98291,6.78927 8.24594,-1.71119 4.24594,7.27293 8.37963,-0.83988 3.46246,7.67691 8.42152,0.0406 2.64103,7.99679 8.37114,0.92069 1.79067,8.22904 8.22904,1.79067 0.92069,8.37114 7.99679,2.64103 0.0406,8.42152 7.67691,3.46246 -0.83988,8.37963 7.27294,4.24594 -1.7112,8.24594 6.78927,4.98291 -2.56375,8.0219 6.23122,5.66528 -3.38822,7.70997 5.6049,6.28559 -4.17557,7.31356 z"
       inkscape:randomized="0"
       inkscape:rounded="0"
       inkscape:flatsided="false"
       sodipodi:arg2="0.052359878"
       sodipodi:arg1="0"
       sodipodi:r2="130.63737"
       sodipodi:r1="135.37552"
       sodipodi:cy="472.84589"
       sodipodi:cx="-970.71429"
       sodipodi:sides="60"
       id="path3802"
       style="fill:#333333;fill-opacity:1;stroke:none"
       sodipodi:type="star" />
    <path
       id="path3806"
       d="m 675.41865,100.32241 -7.1561,5.15618 -7.6562,-4.37494 -6.5936,5.87492 -8.0624,-3.56245 -5.9374,6.53115 -8.4061,-2.68746 -5.21866,7.1249 -8.62492,-1.81248 -4.43746,7.62489 -8.78112,-0.87498 -3.62495,8.03113 -8.81237,0.0312 -2.78126,8.37488 -8.74987,0.96873 -1.87498,8.62488 -8.62487,1.87497 -0.96869,8.74987 -8.37487,2.78121 -0.0313,8.81237 -8.03109,3.62495 0.87499,8.78112 -7.62489,4.43744 1.81248,8.62487 -7.1249,5.21868 2.68746,8.40612 -6.5311,5.93742 3.56234,8.06238 -5.87491,6.5624 4.37493,7.65614 -5.15612,7.1874 5.15612,7.15614 -4.37493,7.65614 5.87491,6.5624 -3.56234,8.06239 6.5311,5.93741 -2.68746,8.40613 7.1249,5.21867 -1.81248,8.62488 7.62489,4.43743 -0.87499,8.78112 8.03109,3.62495 0.0313,8.81237 8.37487,2.78121 0.96869,8.74987 8.62487,1.87498 1.87498,8.62487 8.74987,0.96874 2.78126,8.37487 8.81237,0.0312 3.62495,8.03114 8.78112,-0.87499 4.43746,7.62489 8.62492,-1.81247 5.21866,7.12489 8.4061,-2.68746 5.9374,6.53116 8.0624,-3.56245 6.5936,5.87491 7.6562,-4.37493 7.1561,5.15617 7.1562,-5.15617 7.6561,4.37493 6.5624,-5.87491 8.0936,3.56245 5.9062,-6.53116 8.4061,2.68746 5.2187,-7.12489 8.6249,1.81247 4.4687,-7.62489 8.7498,0.87499 3.625,-8.03114 8.8436,-0.0312 2.75,-8.37487 8.7498,-0.96874 1.875,-8.62487 8.6249,-1.87498 0.9687,-8.74987 8.3749,-2.78121 0.031,-8.81237 8.0311,-3.62495 -0.875,-8.78112 7.6249,-4.43743 -1.7812,-8.62488 7.0936,-5.21867 -2.6874,-8.40613 6.5311,-5.93741 -3.5624,-8.06239 5.8749,-6.5624 -4.3749,-7.65614 5.1561,-7.15614 -5.1561,-7.1874 4.3749,-7.65614 -5.8749,-6.5624 3.5624,-8.06238 -6.5311,-5.93742 2.6874,-8.40612 -7.0936,-5.21868 1.7812,-8.62487 -7.6249,-4.43744 0.875,-8.78112 -8.0311,-3.62495 -0.031,-8.81237 -8.3749,-2.78121 -0.9687,-8.74987 -8.6249,-1.87497 -1.875,-8.62488 -8.7498,-0.96873 -2.75,-8.37488 -8.8436,-0.0312 -3.625,-8.03113 -8.7498,0.87498 -4.4687,-7.62489 -8.6249,1.81248 -5.2187,-7.1249 -8.4061,2.68746 -5.9062,-6.53115 -8.0936,3.56245 -6.5624,-5.87492 -7.6561,4.37494 -7.1562,-5.15618 z m 0,73.53018 c 92.1247,0 95.6428,3.55039 99.1861,7.09365 3.5432,3.54325 7.0936,7.08946 7.0936,61.12411 0,54.03465 -3.5504,57.5496 -7.0936,61.09286 -3.5433,3.54325 -7.0614,7.09364 -99.1861,7.09364 -92.12465,0 -95.674,-3.55039 -99.21735,-7.09364 -3.54325,-3.54326 -7.0936,-7.05821 -7.0936,-61.09286 0,-54.03465 3.55035,-57.58086 7.0936,-61.12411 3.54335,-3.54326 7.0927,-7.09365 99.21735,-7.09365 z"
       style="fill:#333333;fill-opacity:1;stroke:#ff0000;stroke-width:0;stroke-linecap:round;stroke-linejoin:round;stroke-miterlimit:4;stroke-opacity:1;stroke-dasharray:none;stroke-dashoffset:0"
       inkscape:connector-curvature="0" />
    <path
       sodipodi:type="arc"
       style="fill:#808000;fill-opacity:1;stroke:none"
       id="path3843"
       sodipodi:cx="-1330.5118"
       sodipodi:cy="-478.34647"
       sodipodi:rx="30.118111"
       sodipodi:ry="26.574802"
       d="m -1300.3937,-478.34647 c 0,14.67686 -13.4844,26.57481 -30.1181,26.57481 -16.6338,0 -30.1182,-11.89795 -30.1182,-26.57481 0,-14.67685 13.4844,-26.5748 30.1182,-26.5748 16.6337,0 30.1181,11.89795 30.1181,26.5748 z"
       transform="matrix(1.4117647,0,0,1.6,1689.2057,334.18065)" />
    <rect
       style="fill:#ff8080;fill-opacity:1;stroke:none"
       id="rect3845"
       width="85.039368"
       height="1.7716535"
       x="-231.68361"
       y="-432.94534" />
    <path
       style="fill:#333333;fill-opacity:1;stroke:#ff0000;stroke-width:0;stroke-miterlimit:4;stroke-opacity:1;stroke-dasharray:none"
       d="m 487.46353,348.36226 c -77.54314,1.19034 -72.09499,39.60879 -162.78184,81.45922 -92.12632,42.51473 -173.68813,92.20157 -173.68813,241.00306 l 0,177.13556 c 0,10.6286 7.08885,17.7166 17.71881,17.7166 l 49.59393,0 c 10.62997,0 17.78132,-7.1505 17.78132,-17.7791 -10e-6,-170.05893 -3.53645,-333.02357 255.12592,-333.02357 258.66232,0 255.06342,170.113 255.06342,333.08607 0,10.6286 7.0889,17.7166 17.7188,17.7166 l 49.5939,0 c 10.63,0 17.7189,-7.088 17.7189,-17.7166 l 0,-170.04264 c 0,-127.54418 -81.4368,-205.58125 -173.5632,-248.09598 -92.12622,-42.51472 -85.03546,-81.45922 -166.53182,-81.45922 -1.27338,0 -2.51917,-0.0189 -3.75001,0 z m 3.68751,40.80773 c 23.47657,0 42.5314,19.04606 42.5314,42.52627 l 0,1.7498 c 0,23.48023 -19.05483,42.52627 -42.5314,42.52627 -23.47671,0 -42.5314,-19.04604 -42.5314,-42.52627 l 0,-1.7498 c 0,-23.48021 19.05469,-42.52627 42.5314,-42.52627 z m -308.28236,302.90206 21.28132,0 0,148.82635 -21.28132,0 0,-148.82635 z m 595.28338,0 21.2813,0 0,148.82635 -21.2813,0 0,-148.82635 z"
       id="path3040"
       inkscape:connector-curvature="0" />
  </g>
</svg>
