<?xml version="1.0" encoding="UTF-8" standalone="no"?>
<!-- Created with Inkscape (http://www.inkscape.org/) -->

<svg
   xmlns:dc="http://purl.org/dc/elements/1.1/"
   xmlns:cc="http://creativecommons.org/ns#"
   xmlns:rdf="http://www.w3.org/1999/02/22-rdf-syntax-ns#"
   xmlns:svg="http://www.w3.org/2000/svg"
   xmlns="http://www.w3.org/2000/svg"
   xmlns:sodipodi="http://sodipodi.sourceforge.net/DTD/sodipodi-0.dtd"
   xmlns:inkscape="http://www.inkscape.org/namespaces/inkscape"
   width="984.38135"
   height="766.17133"
   id="svg2"
   version="1.1"
   inkscape:version="0.48.5 r10040"
   sodipodi:docname="snowflakes.svg">
  <defs
     id="defs4" />
  <sodipodi:namedview
     id="base"
     pagecolor="#ffffff"
     bordercolor="#666666"
     borderopacity="1.0"
     inkscape:pageopacity="0.0"
     inkscape:pageshadow="2"
     inkscape:zoom="0.7"
     inkscape:cx="430.53273"
     inkscape:cy="418.44989"
     inkscape:document-units="px"
     inkscape:current-layer="layer1"
     showgrid="false"
     inkscape:window-width="960"
     inkscape:window-height="1151"
     inkscape:window-x="2240"
     inkscape:window-y="0"
     inkscape:window-maximized="0"
     fit-margin-top="0"
     fit-margin-left="0"
     fit-margin-right="0"
     fit-margin-bottom="0" />
  <metadata
     id="metadata7">
    <rdf:RDF>
      <cc:Work
         rdf:about="">
        <dc:format>image/svg+xml</dc:format>
        <dc:type
           rdf:resource="http://purl.org/dc/dcmitype/StillImage" />
        <dc:title />
      </cc:Work>
    </rdf:RDF>
  </metadata>
  <g
     inkscape:label="Layer 1"
     inkscape:groupmode="layer"
     id="layer1"
     transform="translate(145.42866,-1850.8279)">
    <path
       style="fill:#000000"
       d="m 534.94424,2148.3764 c -4.47363,-5.4053 3.12878,-7.7939 1.84566,-12.0586 5.78848,-2.4138 6.6304,-4.4083 12.19266,-4.3631 5.22294,-6.6325 -8.08237,-3.9704 -1.12922,-12.2027 2.10983,3.0566 10.11746,1.8919 10.10273,-1.7837 -1.11838,-1.9308 -11.54118,-3.4933 -10.77503,-8.5576 -0.17656,-4.6978 6.09277,-10.0854 9.74891,-4.162 3.00676,2.895 10.15943,2.0539 13.20862,2.5756 9.73356,-1.6559 -0.45927,-7.8373 -1.15006,-11.5076 -1.28647,-5.6551 -3.29233,-5.6523 -7.41347,-10.7399 -1.23401,-4.9051 -0.1733,-8.5228 4.30414,-10.9497 5.25009,0.6604 7.02832,-2.7008 12.79122,1.5421 5.22967,4.3583 7.48286,-0.8249 13.10264,-0.8534 4.50308,-1.4511 6.30159,-7.4921 11.55585,-6.4115 3.27423,3.0786 6.21267,-4.3997 10.73306,-5.3484 5.60131,1.9338 7.58917,-5.3373 12.91228,-4.9092 3.44957,0.1637 7.21423,0.7622 12.35122,-1.6149 3.8402,-0.8956 11.0825,-7.4609 6.77301,-11.7384 -5.07418,-0.8897 -7.91104,-6.0698 -13.22081,-3.5637 -5.47262,-0.521 -11.60001,3.6871 -18.61593,-2.3906 -4.21272,4.2925 -8.02282,-1.8157 -13.45447,-3.4822 -4.06179,4.3367 -12.23088,-3.3354 -18.76903,-2.8399 -4.73815,-0.509 -7.40739,4.814 -11.72051,5.9958 -11.40306,-0.01 -13.95945,-6.2777 -10.61581,-15.5388 5.5843,-6.0519 8.07056,-15.6374 -2.65132,-12.211 -4.93491,1.2469 -7.41555,4.5763 -11.26661,7.1759 -8.08281,0.5132 -8.91166,-11.9173 -2.19335,-13.8801 1.52615,-1.6144 7.85826,-8.9365 1.21891,-8.326 -6.43241,4.7885 -11.62823,1.0025 -4.58996,-4.8172 -2.57577,-5.6 -11.21924,0.1397 -14.46198,-5.8881 -3.32438,-4.2332 -6.03958,-6.4048 -4.86543,-11.7039 4.05988,-3.6294 11.87381,-6.1926 16.16012,-1.0793 5.08453,8.0891 10.58597,-1.7696 13.98625,0.3046 0.50005,2.194 6.69562,11.8451 5.62725,2.9075 -0.40372,-4.6623 -1.396,-10.6295 4.48089,-12.3568 7.91751,-1.3476 3.81229,6.8871 8.14582,10.4436 1.14006,5.2449 2.14683,8.8489 7.15787,9.1979 1.4092,-5.0856 5.54657,-8.7536 5.88808,-14.4619 0.72326,-4.5516 7.89013,-10.109 10.97735,-7.9403 3.21431,2.0312 9.49636,4.8411 7.88865,9.686 0.1403,4.1023 1.33298,12.8914 6.64903,11.0291 1.11209,5.778 7.08988,7.5193 11.53515,8.1607 1.3042,7.2582 9.78975,5.2503 11.9277,11.5076 8.62654,1.8593 10.45119,8.555 14.12983,12.6381 1.63661,5.6387 7.39722,4.3359 11.42313,7.5501 6.0016,0.427 6.12136,-9.3541 4.31451,-12.847 -1.58095,-5.4059 -4.87944,-7.9937 -7.86113,-11.153 -1.75892,-4.7364 -0.1098,-9.6947 -4.32828,-13.3635 -1.43778,-4.8293 1.33369,-9.9911 -3.55691,-11.3252 -3.0777,-3.8232 -0.65899,-9.5969 -4.01146,-14.066 0.52542,-7.5626 -6.18876,-7.0716 -10.98768,-11.7176 -2.42401,-4.0957 -8.4539,-8.9865 -4.32397,-13.256 3.76153,-5.5973 9.2284,-7.2062 15.5742,-3.4898 5.18735,0.4237 12.29728,-1.7328 9.27627,-6.6118 -4.76893,-4.4683 -7.36936,-8.2422 -13.19417,-8.9894 -3.09225,-5.818 0.91293,-5.859 4.24419,-10.1919 4.05675,2.0072 17.10186,8.7142 11.71762,-0.21 -3.64127,-1.8452 -3.9611,-7.3471 1.5357,-9.0285 0.80923,-3.5356 -1.10494,-9.4033 -1.6665,-13.6424 -2.71893,-5.5034 3.8416,-8.0218 7.28953,-9.6035 5.10526,0.037 8.87018,3.4031 9.65511,8.5808 0.92133,5.3334 0.086,11.0275 0.1446,16.5486 2.87141,-4.5266 13.31379,-0.8917 5.60917,4.4316 -3.7117,1.7083 4.84071,6.9653 6.91077,2.4827 3.74752,-4.6531 11.58558,-2.466 9.44847,3.4158 -4.8469,3.3054 -6.94163,6.9957 -9.61032,11.938 -9.11079,8.1899 1.72164,8.3396 6.49556,6.371 3.12235,-5.3746 7.49787,2.0099 10.73485,-2.4042 5.82044,0.096 15.09341,8.0172 6.38389,13.0226 2.15936,6.6508 -8.52347,6.1168 -9.41502,12.7305 1.56634,4.9586 -3.67744,7.4205 -1.04926,12.3472 1.45258,5.4032 -2.44662,8.4926 -1.58132,14.1502 -0.2549,6.3918 -2.96679,8.4166 -1.55216,15.2904 -0.79888,6.826 -5.71923,10.0741 -6.1293,16.7306 3.96344,4.0633 -1.43271,10.3059 5.86074,11.0432 3.16534,-4.6045 7.97881,-2.7419 10.45046,-8.1778 4.10215,-1.8017 1.66375,-7.4397 4.83758,-11.0615 5.12352,-3.0014 7.79073,-9.4934 12.81985,-13.0969 4.72326,-3.1011 6.57975,-9.6728 10.67054,-11.8121 4.23225,-3.0523 9.46616,-6.8769 6.87324,-13.0316 -4.15385,-6.2369 6.32421,-7.7702 3.05082,-14.2622 4.90571,-2.9423 8.81003,-4.9688 11.25281,-1.0537 3.86924,-1.6887 4.62713,4.9471 6.6594,9.1317 3.08141,4.5187 3.56657,5.6646 8.20389,8.3491 4.15697,-2.0843 5.45658,-9.574 3.62392,-14.4265 -2.20888,-6.8794 8.18914,-10.3839 11.52588,-2.9645 0.83906,3.9716 -1.99776,9.8963 3.27701,10.9082 1.40475,-10.7613 5.17336,-10.4018 12.72312,-5.251 0.20187,-4.6396 5.81359,-7.2102 9.27887,-10.3441 5.32323,-1.7476 13.69032,1.3024 12.41417,8.3282 -3.5898,4.3233 -4.81431,7.9035 -9.27988,10.5726 -3.00203,-2.2589 -11.77018,1.3116 -5.5816,4.8792 7.3985,2.1368 2.39869,10.5437 -5.75723,4.8 -6.61961,3.1419 -8.32594,1.8656 -2.23675,4.3347 3.38207,4.8888 10.49097,3.9523 9.99799,10.7883 2.85183,4.6667 -5.32669,9.9119 -7.28614,5.3786 -4.46713,-0.041 -8.94137,-4.4226 -15.28146,-2.6652 -5.31668,1.6907 2.67606,11.1411 1.93818,10.463 7.66133,1.576 8.85174,9.5501 7.49307,14.0776 -2.91463,3.765 -9.3927,3.2348 -12.30991,4.8035 -4.24221,-1.9615 -9.20275,-4.3184 -14.99227,-1.9008 -5.06962,1.3011 -8.57601,6.3115 -13.54949,6.1464 -5.13953,-0.4513 -8.00645,7.7806 -13.83874,5.3819 -4.53428,1.0406 -9.17544,8.5179 -13.24993,5.0135 -3.64928,-0.5114 -9.0499,0.9261 -12.43622,3.5137 -6.17977,4.5865 -7.10046,9.6425 -0.49696,11.5749 4.35741,0.9588 9.09878,4.4138 14.32424,2.4448 4.41043,-5.0707 13.31018,5.687 16.13832,0.7652 4.62072,2.068 11.74849,3.7269 16.11191,3.6354 5.13952,2.2308 7.10762,3.908 12.32626,4.7664 3.99099,-0.8012 7.69038,0.4802 11.39833,-4.422 3.59103,-1.1243 14.79044,-4.1491 15.72908,3.0784 0.0656,6.7155 -3.29382,14.7159 -6.62827,20.6088 -5.85899,7.8578 8.7925,8.6374 10.75718,3.3717 5.22362,0.9402 8.99513,-8.3658 14.4927,-2.4806 3.23998,5.0698 -0.4227,8.7805 -4.831,10.7121 -6.78153,3.6712 1.51672,8.2237 4.41966,3.3985 10.24942,-0.3061 -6.17913,10.8718 6.63806,9.6427 8.01583,0.7976 11.43073,6.2866 13.79962,9.158 2.27752,4.276 -1.58448,10.0523 -4.80345,9.2453 -5.0248,2.6567 -13.62248,-1.3716 -19.4066,-6.6387 -3.13151,0.9262 -5.39464,12.1251 -8.38104,1.7147 -2.81145,-6.5487 -6.8141,0.9682 -4.86631,5.5188 3.49421,4.794 -7.00253,9.5793 -9.19626,5.0453 -1.15667,-4.1066 -2.70128,-8.6712 -3.27463,-12.8883 1.26524,-3.7508 -8.37159,-12.9359 -9.81448,-3.7217 -2.22318,6.4902 -5.97781,14.1772 -11.05898,18.6106 -6.0384,4.0809 -11.18505,-6.3156 -12.71965,-9.7515 1.37484,-5.6393 -2.60404,-7.8238 -4.19367,-11.4362 -4.12049,-3.385 -6.67959,-3.7293 -11.76957,-6.1179 -2.36701,-3.7004 -10.25432,-7.2397 -13.18165,-10.1329 0.4244,-4.6978 -12.09053,-4.7459 -11.46574,-11.1263 -1.98327,-5.22 -7.71167,-6.4865 -11.31471,-9.1179 -5.81979,-3.6702 -8.99983,0.3668 -8.34676,8.0348 -0.61919,4.7884 3.6919,7.6675 4.50048,12.2086 5.51288,-2.1586 4.93442,7.2273 5.18996,11.3747 3.94683,3.8391 3.63778,7.5574 4.99283,12.5538 1.92237,2.0381 3.22621,6.3137 4.59703,11.3451 0.55296,4.7287 1.20908,10.1053 4.28693,12.6318 9.03596,0.9786 6.57836,8.6055 13.51854,10.323 1.5599,4.5558 -0.57888,9.9561 -5.8579,11.2353 -3.97895,6.1438 -8.32112,-1.3488 -13.08754,-0.6015 -4.24237,2.3029 -11.44593,3.6691 -5.61352,8.9329 3.37427,2.6765 6.8389,6.4159 10.5779,7.9403 5.20897,1.6293 -0.003,6.5115 -3.4979,9.162 -3.56714,-1.3846 -15.3536,-7.6723 -11.52191,1.1817 10.85348,5.51 -1.89616,6.5785 -1.77068,7.2847 0.55034,4.8517 1.83744,8.3665 3.12822,13.7205 0.31708,5.1391 -4.28469,9.1719 -9.25888,10.1825 -7.85819,-1.3713 -8.26288,-4.9648 -9.04758,-11.0771 -0.51878,-3.8711 7.1665,-11.6634 -0.7116,-10.6055 -3.85536,3.1734 -11.6315,-3.7577 -4.13224,-8.9782 4.43453,-9.3698 -6.78627,-1.6183 -8.91083,1.0149 -5.43523,0.091 -13.71811,-3.5165 -7.12136,-9.5131 2.60866,-3.2363 10.85473,-5.5879 9.33572,-10.0014 0.59806,-6.9541 -7.12576,-7.3291 -10.98507,-3.2107 -4.03466,1.9353 -9.18439,2.5274 -10.95322,-0.079 -6.20888,0.6025 -6.80202,-10.5382 -2.1511,-15.5868 2.94487,-3.1913 10.85547,-3.937 8.91727,-9.2567 4.16185,-5.7503 -2.93685,-13.4013 3.09526,-17.9758 2.07025,-4.3088 -1.83482,-9.6153 0.12775,-13.5376 3.84487,-4.282 -0.83629,-9.9699 1.9386,-14.7639 5.33965,-1.9764 4.3739,-5.798 4.71393,-10.765 -0.15982,-3.2257 -0.13478,-9.7067 -4.13124,-11.3727 -3.11237,0.9973 -8.3346,4.7812 -11.65615,7.3524 -2.24802,4.6612 -2.57465,11.9428 -8.7016,14.7428 -5.1315,3.0007 -2.70229,5.9547 -6.53804,8.9914 -5.46953,1.9056 -4.99823,7.2104 -9.3495,9.8368 -4.5049,2.4193 -7.79744,5.5998 -9.81678,9.8725 -3.73995,5.0327 1.25836,11.178 -0.98148,15.4772 -3.4839,11.9262 -12.02159,6.154 -18.7543,3.7991 0.26718,-4.1465 0.46089,-9.6255 -2.74241,-10.9578 -3.94774,-0.8062 -5.47701,-8.6708 -8.45338,-6.5595 -3.65486,3.3159 -4.08666,7.2745 -4.31883,12.7394 0.78758,4.388 2.45414,10.6916 -2.50933,12.7103 -6.09224,3.0943 -7.9548,-3.8106 -6.89698,-8.6049 -2.96528,-4.6175 -5.45338,-11.2958 -7.72033,0.058 2.40045,5.1792 -7.87618,5.9919 -5.22372,0.06 -5.13416,-6.6044 -3.65221,2.288 -8.26339,4.2655 -4.69095,3.9263 -10.70251,7.626 -17.23196,2.6749 l -0.53913,-0.757 z"
       id="path3054"
       inkscape:connector-curvature="0"
       inkscape:transform-center-y="-35.275382"
       inkscape:transform-center-x="-2.1065412" />
    <path
       style="fill:#000000"
       d="m 548.1046,2330.6805 c -5.43285,-2.4172 -9.23579,0.2253 -14.99394,-1.859 -3.40467,-3.0437 -5.6367,-8.9574 -5.1853,-12.1075 -0.11959,-3.5691 3.93918,-14.9954 1.30033,-14.9297 -1.51197,4.0551 -4.94955,7.1199 -5.92374,11.4621 -3.31502,6.4023 -7.67346,2.3076 -9.48761,-2.6007 1.84628,-4.5467 7.14073,-8.1279 5.58662,-13.6775 -3.58542,-5.1774 -2.9633,-8.5125 -1.73378,-14.4025 -3.03411,-4.6355 -6.32051,1.4844 -7.32039,5.1557 -1.9757,3.6902 -5.87917,9.9285 -8.09097,2.8896 2.74658,-3.5091 4.42599,-7.5262 6.35719,-11.3659 5.76234,-5.6794 -0.0751,-3.9089 -1.87826,-8.9578 0.15889,-4.5672 -0.004,-15.6092 -4.47893,-5.8756 -2.46986,4.0662 -3.78175,8.0832 -7.17591,11.6549 -0.2356,5.6347 -6.21963,6.9476 -7.07959,0.8668 1.45888,-4.1031 4.85469,-7.2793 5.92374,-11.6548 2.99647,-2.1009 3.83238,-10.5064 7.75384,-8.3799 3.09938,-3.5732 -4.99108,-5.8876 -5.00869,-10.788 -1.39276,-6.9529 -4.96839,-2.5651 -6.50167,2.0228 -5.13903,-1.9163 1.17624,-8.4735 2.07091,-11.1412 -5.92386,2.2988 -6.31762,-7.4981 -10.01738,1.6054 -4.05932,1.3805 -4.35363,10.9287 -9.05417,7.513 -5.21205,1.4606 -0.84093,-9.1849 0.57792,-12.1364 4.79532,-5.6632 -2.93151,-12.721 -2.3117,-19.6495 -1.70939,-2.6024 -3.62718,-12.4494 -6.93511,-8.8615 -3.55147,5.1029 -5.87003,11.6517 -6.74247,18.301 -3.12669,6.1223 0.037,10.598 1.87826,16.2782 7.18643,4.9822 -6.34439,11.2539 -6.06822,2.8896 -3.20067,-2.3374 -5.66818,-9.5184 -8.90969,-8.3799 -5.67924,2.0681 -5.70848,6.162 -0.72241,10.6917 -2.05575,8.0238 -3.69579,-4.7327 -7.75383,-3.5639 -0.30006,4.2983 -2.60768,7.3135 -4.81605,11.7511 -6.54004,1.3694 -0.85283,1.6518 1.73378,5.7793 2.84058,3.574 4.36565,7.5894 6.50166,11.6548 2.50307,3.1754 4.62067,7.2939 0.72241,10.5472 -4.95922,-0.2057 -3.6471,-7.2382 -7.65752,-9.3913 -1.15473,-4.5399 -3.93926,-7.5848 -5.73109,-11.6549 -4.89053,-5.7949 0.33928,8.7043 -2.74515,9.9211 -0.73859,6.8737 -10.14052,-0.026 -2.60067,5.7793 1.06512,4.3576 4.40175,7.5402 5.92374,11.6548 3.54034,4.0382 -3.95239,9.9859 -4.76789,2.6007 -3.14326,-2.0109 -3.54607,-10.7064 -7.36855,-8.7652 -3.02344,4.5887 0.6766,10.7731 -2.76923,15.8929 -1.94129,6.2012 7.99811,10.6292 2.76923,16.0856 -2.44278,7.2616 -7.27643,0.4684 -9.05417,-3.4676 -1.70338,-3.1695 -6.97895,-15.3035 -5.66487,-4.0776 4.14188,4.3914 1.6971,6.8033 3.35317,11.5907 -1.84894,4.7179 -2.28782,12.2932 -9.24681,11.9438 -3.65007,-1.4006 -17.88276,4.9539 -16.68761,-3.5639 -2.82274,-3.4177 -4.78842,-7.2721 -6.62207,-11.2696 -1.04712,-5.3587 4.51434,-8.5061 6.74247,-12.329 4.13571,-3.4638 12.40383,-0.473 13.29229,-5.394 -3.61404,-0.7542 -6.62865,-1.3387 -10.98059,0 -3.94218,-0.4489 -9.77692,-0.9777 -5.00869,-6.3572 2.98245,-5.5973 8.24365,-2.4177 13.09965,-3.4675 3.46767,1.1071 3.83408,-7.2396 9.05417,-7.8984 6.44935,-1.3039 8.30799,-7.3477 1.73378,-6.3571 -2.6363,-0.9125 -13.44945,3.3929 -11.36587,-4.0455 1.99457,-4.5195 11.15393,-1.2785 15.41135,-1.5411 6.25944,0.6846 1.39276,-4.2414 5.77926,-8.091 2.74561,0.6256 11.039,-2.8118 5.58661,-5.2013 -4.03033,-1.2199 -26.11469,5.3835 -22.73174,-4.2382 2.33509,-4.6382 8.98278,-0.8768 11.9438,-1.9264 3.62625,0.4223 7.5857,-0.8295 11.36587,0.5779 4.08339,0.2283 6.20977,5.1552 5.20133,-1.7337 4.17567,-2.681 1.14622,-4.7083 5.77926,-8.6689 2.82714,-2.2736 -14.11603,-3.2393 -4.18241,-6.1646 8.89485,1.3927 6.60515,-1.4856 7.26468,-5.7792 0.27097,-2.5976 -7.54906,-2.8863 -11.75116,-2.3117 -9.29605,-0.6651 -3.2694,-12.6249 2.31171,-8.091 5.58183,0.9681 11.49421,-7.2111 14.2555,-7.3204 2.97851,-2.828 5.74423,-6.4789 8.09096,-10.4026 7.95942,-8.5315 -4.44155,-5.7115 -10.30634,-5.1211 -3.15336,-0.2997 -12.44448,5.2584 -11.4622,4.3505 -3.3329,-2.1968 -5.09773,3.9824 -8.09096,7.7057 -1.14052,6.5498 -11.43977,4.0013 -7.46487,-2.6007 2.75813,-4.4849 0.78536,-8.0436 4.76788,-11.6548 -4.66544,-3.5151 -7.81471,-5.7803 -10.25818,1.4448 -8.98643,7.1922 5.54986,-10.2007 -4.76788,-5.4903 -5.6636,2.9235 -14.78681,-5.7339 -12.07222,3.6602 -2.79435,3.3591 -4.36692,7.6344 -6.42141,11.1732 -3.03785,2.9351 -4.99933,11.7731 -11.02875,6.6462 0.46184,-4.2813 4.62818,-7.2758 5.63478,-11.4622 0.89513,-3.8565 9.85706,-9.6341 5.39397,-11.7512 -5.25296,-0.017 -7.38874,10.4299 -12.90701,3.4676 -2.17361,-5.261 -2.73362,6.1624 -6.60484,7.2561 -0.26504,4.2867 -5.61474,12.1939 -9.38444,5.8435 2.23349,-3.6903 3.68991,-7.9375 6.8067,-11.1732 0.56051,-6.9224 -7.91593,1.1894 -10.27425,0.9632 -4.41489,2.2373 -9.70153,-0.1673 -10.78795,6.5498 0.14313,6.4251 -15.00353,9.0011 -12.08828,2.2154 2.04443,-4.3688 4.14176,-7.77 6.88695,-11.6548 -1.14079,-6.615 -4.75198,4.5789 -9.05417,4.6234 -4.87796,3.8683 -8.802,4.8232 -14.89762,3.349 -2.82328,-3.444 -5.36118,-7.0897 -7.44884,-10.8621 -6.91461,-3.8066 -0.63248,-8.617 1.73377,-12.5217 2.33197,-4.3531 6.12636,-9.852 11.36588,-8.6689 5.15668,0.2606 7.28036,3.5082 12.4254,5.3458 2.01769,5.8516 8.96417,7.0215 3.99732,0.1445 -1.6405,-3.3777 -6.43959,-7.0539 -5.44213,-11.0769 7.3249,-5.0365 12.42089,2.3889 13.82205,8.1873 3.28971,2.5736 9.18155,2.8635 12.37725,3.7565 3.78761,4.5867 10.96414,3.7741 5.20133,-2.3117 -1.0022,-3.3164 -8.4277,-9.8688 -1.15585,-10.7879 5.36974,0.7301 4.41554,7.8021 8.09096,10.7879 3.3752,6.4733 2.2724,6.7133 8.47624,2.3117 2.67272,0.9591 10.98086,10.4748 9.6321,2.8896 -2.22606,-4.0114 -6.69789,-7.2835 -7.45798,-12.2006 -2.60506,-2.9294 -7.94563,-10.8811 0.81183,-9.4475 3.53521,3.2051 4.48752,7.5061 7.66442,10.6033 0.6794,4.6361 6.42302,8.406 4.18306,12.7786 3.09267,-1.765 13.78472,1.1746 17.00065,-2.0227 -6.4923,-4.584 0.32768,-8.6842 1.87826,-1.4448 0.29567,6.3111 12.53228,-1.074 6.35718,-4.0455 0.63372,-3.8423 -4.38148,-8.6972 -2.88963,-13.6776 5.29927,-5.088 6.35965,1.7969 10.06554,4.9124 1.858,7.1617 5.49226,4.0478 9.3913,7.0314 6.44229,3.5473 12.595,2.6945 20.47575,3.4676 2.10747,-3.0612 -4.47041,-7.0997 -5.0644,-10.788 -3.0209,-5.2438 -6.14682,-3.7922 -8.66889,-8.091 -4.73748,-6.1778 -12.25703,-2.5384 -17.14513,-5.3939 -4.876,-9.8228 7.64708,-4.7066 10.98059,-8.8616 7.3743,3.1321 2.00402,-2.0734 5.58662,-5.7792 -1.4279,-3.8072 -13.05997,2.5897 -10.78795,-4.9174 8.6653,0.9253 8.07671,-1.8935 3.46756,-7.0264 1.18571,-1.2115 -4.50432,-6.0371 -2.31171,-7.513 -3.00933,0.5437 -5.97552,4.3811 -10.21002,1.7337 -3.96264,1.7452 -7.00265,-0.5641 -11.55851,1.1559 -3.76912,1.6005 -11.8993,-4.4388 -4.94447,-7.2187 6.01467,-2.1731 26.64434,4.1838 21.12639,-2.6061 -1.60933,-3.0281 -7.12922,-0.2054 -8.66889,-6.7424 3.53039,-5.527 -6.00577,-2.2678 -9.24681,-2.8896 -5.5865,3.9897 -15.0045,-4.9746 -5.39398,-6.6141 4.31526,-0.049 8.67525,1.6685 12.20067,-0.5137 0.32923,-4.8141 -8.26904,-4.3057 -11.23746,-8.8615 -1.13362,-6.6961 -5.68112,-3.7107 -10.40266,-5.0087 -3.74966,2.7368 -9.14263,-4.3466 -8.0428,-7.2241 1.76895,-3.4477 7.91365,-0.3335 10.93243,-1.4448 3.36672,2.0084 9.89578,-2.6591 3.08227,-3.018 -5.70786,-0.8867 -12.09444,-2.9772 -14.0147,-8.0589 -3.93926,-3.3964 -3.34268,-8.0467 -0.43344,-11.8475 4.10389,-2.9161 2.28662,-11.7367 8.10105,-10.7879 6.72112,1.3945 15.51157,-2.1312 18.82065,4.3344 3.63666,3.7484 2.6199,9.8463 2.74515,13.3886 -0.37819,1.0374 -5.65947,16.5253 -0.57792,8.8615 2.16733,-3.7925 3.95994,-7.552 6.35718,-11.1732 2.71155,-6.9569 11.45857,4.8295 6.16454,8.091 -4.2629,4.4641 -1.32518,11.4685 -1.5893,15.7003 -0.0576,3.8772 1.00571,14.7843 5.05685,7.0314 2.30924,-3.1466 3.72948,-9.5925 7.51304,-10.21 3.9806,3.4657 0.79353,7.9565 -1.73378,11.3659 -0.86338,4.1218 -5.54234,7.6182 -5.77926,10.4026 2.68501,-5.4842 9.7176,4.8912 5.31692,6.7425 -0.65494,10.0725 3.16515,6.2997 5.27839,0.5779 2.06185,-3.4903 3.57574,-7.8309 6.40534,-11.0769 0.23561,-5.6348 6.21968,-6.9476 7.07959,-0.8669 -1.81129,3.9481 -3.9646,7.6651 -5.92373,11.6549 -2.49121,2.2451 -3.76704,10.4182 -7.5612,8.3799 -4.15332,4.2367 4.21273,2.1339 4.81605,8.4762 0.80212,3.3183 2.78471,10.4992 5.77926,3.4676 3.02228,-7.0295 5.30736,1.1723 0.7224,3.7565 -3.69626,4.1147 7.91774,11.4124 7.30437,3.5639 5.32705,-1.3634 4.69969,-8.4497 9.11836,-9.6321 8.49836,1.2354 1.44046,8.4377 0.57792,12.7144 -3.41215,5.8301 1.36553,13.4216 1.8714,20.0989 2.55494,2.0027 4.21824,14.2118 7.7607,8.4121 3.92608,-5.2333 5.04136,-11.791 6.35718,-18.301 4.68174,-5.6187 -1.44485,-10.1343 -2.3117,-15.9893 -3.12527,-4.7357 1.80474,-9.1371 5.63477,-5.4903 0.99053,5.2136 7.69042,7.3084 8.0428,12.8107 1.90088,-6.9687 9.77096,-1.4291 5.05685,-8.1873 -4.4872,-4.3655 0.1577,-10.0434 2.45619,-2.6007 2.50508,5.2558 4.50663,-4.31 5.9398,-6.6943 5.97433,-4.8119 3.47877,-4.547 -0.30502,-8.4281 -2.55779,-3.3846 -4.7153,-7.1365 -6.21271,-11.0769 -2.71001,-3.2225 -5.64679,-7.5992 -1.73377,-10.9806 4.26952,-1.2168 4.83149,6.2605 7.51303,8.6689 3.29002,3.2766 3.49067,10.8798 8.23799,11.9438 2.15038,-3.7516 -2.68929,-11.0185 3.70581,-14.2555 4.49557,1.4045 -3.05399,-6.1058 -3.03411,-8.9578 -2.00571,-3.6744 -6.57838,-7.5662 -1.5893,-11.0769 3.57605,3.2077 5.16832,7.3618 7.36856,11.0769 4.67584,7.6249 4.33309,-3.902 4.99266,-7.3686 -1.02324,-3.0746 5.21844,-10.3328 -0.61006,-14.4963 -3.24998,-3.4536 -3.03523,-7.8463 0.77057,-10.9806 4.66421,-1.4803 6.53079,5.9407 8.23544,9.5358 4.05457,8.7008 6.07774,4.3402 2.74515,-3.1786 -0.23645,-5.2558 -1.76487,-8.1541 0.70314,-13.8381 1.4363,-5.1634 7.94097,-5.9493 11.04801,-6.0682 4.97614,2.3885 11.89657,-5.0781 12.84282,2.9538 3.7425,4.1422 5.65878,9.2018 6.80666,14.6408 -1.00944,4.207 -5.38164,10.3959 -9.05417,9.6321 -2.19631,4.1687 -17.54929,4.4259 -8.66889,6.3572 4.67639,-0.023 8.52483,0.5732 12.52173,-0.5779 5.09962,2.2599 0.14036,9.7151 -3.27491,9.8247 -4.94385,0.3963 -9.94792,-2.4227 -12.13645,3.2749 -2.07872,3.5433 -8.50047,5.7104 -11.36587,7.8527 0.81222,5.1226 10.07806,2.6615 13.67758,2.55 6.78554,5.8183 -6.98751,7.0028 -10.78795,7.3204 -9.13951,-3.4159 -8.05255,-2.0703 -7.36855,3.7565 -0.99789,4.9807 -11.47514,1.9763 -8.62073,8.3799 5.18758,1.4231 29.84964,-5.5965 23.8876,4.4308 -2.30631,3.4556 -8.19884,2.0468 -11.9438,1.1558 -3.99154,0.5881 -11.7547,2.6101 -14.39998,-2.0227 -2.34526,1.436 -1.45649,7.8784 -5.63478,10.1137 -10.41773,5.8253 15.41193,5.7535 0,8.4762 -7.55172,-3.704 -3.04208,9.4956 -3.46755,7.5131 2.82243,1.8842 19.02061,-1.5528 15.98928,7.513 -5.60014,3.9992 -15.36578,0.033 -18.87891,6.1645 -3.19447,4.4065 -7.17399,5.3412 -9.6321,10.4027 -0.73685,2.5723 -9.83861,9.6474 -1.15585,8.4763 7.43586,-0.2778 12.59007,-1.8994 20.13108,-3.588 5.57059,-1.1943 5.98346,-6.8752 10.1137,-9.5117 -0.10483,-7.265 13.29279,-2.1622 6.35718,3.4676 -2.52276,4.703 -2.36853,8.1668 -4.91236,11.7993 6.82842,3.2525 7.82368,1.4438 11.59064,-4.3414 5.64719,0.3963 -5.71048,12.3825 5.55449,6.9059 6.61293,-2.8567 11.77982,5.9891 9.66422,-3.1906 3.47711,-3.4414 4.1806,-7.5534 7.19194,-11.1732 2.13035,-3.9619 4.1897,-9.8379 10.40267,-8.091 0.0611,4.9023 -3.62575,8.2895 -5.63478,12.2328 -0.29254,4.7771 -7.51145,7.3916 -5.34581,12.4254 5.01466,-1.1623 7.26418,-7.874 11.55851,-4.6234 2.89052,1.6038 6.76551,-1.0378 8.0428,-6.6462 1.15982,-3.0358 6.82515,-11.5919 9.10233,-5.8756 -0.65729,5.4068 -6.58323,8.5639 -5.63477,14.5445 4.43681,2.2429 5.62406,-4.0915 10.64346,-4.3344 6.08075,-0.4652 9.31759,-1.9142 11.41404,-7.6094 -1.4222,-6.1603 12.02382,-6.196 10.3545,-0.8669 -1.61638,3.9108 -4.04051,7.9985 -6.60334,11.101 1.24158,7.956 5.72012,-3.5443 9.49297,-4.3585 3.05476,-3.6525 9.34363,-3.8443 14.2555,-2.3117 2.69441,2.8426 4.36897,3.7751 6.93511,8.6689 2.80988,4.5452 5.51584,7.1962 1.01137,11.6548 -2.64802,3.0025 -4.26848,8.5324 -6.79063,8.3799 -3.54234,5.8086 -9.99025,1.2609 -14.2555,1.1559 -3.15131,-3.2138 -5.93576,-6.4609 -9.43945,-9.2468 -3.12735,3.2552 3.21184,8.3204 4.67156,12.2327 5.26479,5.8955 -8.45397,8.1337 -8.90969,3.1786 -2.43476,-4.4053 -3.35952,-10.6542 -10.30634,-8.5886 -4.18761,-2.472 -8.14879,-3.4126 -10.30634,-6.2448 -6.12258,3.2764 2.08169,8.8383 2.45618,13.3886 3.75448,7.1881 -7.04391,2.5325 -7.07959,-2.2154 -1.41607,-2.7357 -5.02706,-12.5879 -7.46487,-7.4167 -4.13294,0.3843 -6.85239,-0.8616 -10.83611,-4.3344 -6.80292,-2.2058 0.83283,6.7312 2.3117,9.2468 1.41723,4.0211 4.24845,7.4522 6.22877,11.1732 0.57577,7.1705 -9.3543,1.115 -9.26288,-3.5639 -2.60482,-3.6252 -4.70986,-7.158 -6.59798,-11.0769 -2.70951,-7.0285 0.0549,-5.9817 -7.47747,-4.6234 -6.83825,-2.0137 -12.57991,-1.3819 -6.97068,5.2013 -3.86605,6.7384 -5.54149,-9.8996 -9.63209,-3.4675 -8.14798,0.4804 -0.41607,5.9228 -0.14448,10.499 6.2033,4.3188 -1.76965,13.6938 -4.62341,6.9351 -3.16507,-3.4318 -5.38696,-7.0697 -8.90969,-9.9211 -6.24425,-1.0285 -11.99851,-5.1383 -17.9157,-3.5959 -7.97915,-4.9484 -10.81191,2.4252 -4.04548,5.3297 1.20745,5.7178 6.2779,6.818 8.44415,11.1251 4.72031,4.889 8.94541,5.7205 16.02138,6.4053 14.29881,3.5832 -4.06794,8.8391 -8.86153,8.6689 -4.18592,-2.883 -4.07515,7.1406 -1.63241,7.513 11.58741,-1.509 7.59865,5.5579 -0.10137,5.0087 2.60321,3.7525 6.71203,6.3153 7.36856,11.2696 -1.49298,5.309 7.59167,-3.4856 12.08828,-0.289 4.23897,0.649 8.11681,-1.3475 12.52172,0.5779 5.54443,-1.2691 6.47431,11.0348 -3.86987,6.1603 -6.17186,0.6024 -23.5739,-3.9107 -15.05466,4.6277 10.29356,-1.8854 5.73973,7.8779 6.40281,8.8615 6.36539,-0.4711 16.96239,-4.6465 20.03476,3.0823 -1.38506,4.9177 -9.3327,-0.1122 -14.35684,2.3117 -4.12018,3.3205 5.38361,5.2046 7.71069,7.9465 4.0701,2.5167 4.78904,9.1604 10.69163,5.1531 5.09433,-0.074 8.17387,2.2663 10.21002,7.5131 -3.54327,4.2303 -7.70256,2.0278 -11.17323,1.8622 -8.83687,-0.8662 -8.51451,3.8936 1.54113,4.495 4.01108,1.7177 6.00608,2.7883 9.6321,6.7424 4.38195,4.5656 0.98062,11.4413 -1.73378,15.9893 -2.55301,3.7371 -3.41993,9.3834 -7.89832,7.513 z"
       id="path3194"
       inkscape:connector-curvature="0" />
    <path
       style="fill:#000000"
       d="m 203.23928,2142.6188 c -2.37158,-4.0604 -7.18678,-9.668 -4.23813,-13.8702 1.86963,-5.0194 4.6315,-10.1625 8.66889,-13.485 3.40799,-4.6192 -10.87641,-1.5824 -11.60668,-9.1505 -1.08411,-5.866 -9.04808,-10.2982 -4.76788,-17.4341 1.01314,-8.4295 11.7426,-3.428 13.62941,-10.1137 1.99808,-5.5514 7.64172,-7.6868 8.86153,-13.4849 4.12743,-4.3445 7.42958,-8.9002 13.91838,-10.3063 10.25899,4.4331 5.4021,-7.9505 1.96772,-11.6789 -2.37003,-4.4892 -5.71707,-9.2413 -7.93962,-13.7499 -3.47453,-4.1437 -4.11972,-10.8519 -9.6321,-13.4849 -6.19625,3.0253 -3.91517,11.4882 -12.52172,10.4027 -4.35236,1.2256 -11.5829,1.6246 -16.35048,1.6517 -11.6716,-4.9208 -11.78372,8.5017 -21.40734,7.2098 -8.77957,2.055 -9.20766,-7.7228 -13.14781,-11.8475 -6.81039,-4.457 3.27642,-16.0239 -3.51571,-14.8816 -5.63516,1.9009 -9.67849,0.4763 -14.35183,0.9151 -4.69314,2.2761 -7.53179,-4.6352 -9.63209,-9.6321 -3.84768,-3.9305 4.18148,-9.3834 5.16007,-14.3759 5.04856,1.7648 9.1459,-0.947 14.10412,1.2762 5.18295,0.763 10.67205,0.2182 5.00869,-7.513 2.94164,-5.1028 4.16014,-10.9192 8.71705,-15.1224 0.97334,-8.1398 16.33595,-5.7743 16.97657,1.6787 6.50775,3.6186 14.57744,-0.5486 20.15516,2.2705 5.46348,-0.3258 13.54685,0.217 15.79663,5.2013 1.24274,7.685 9.34244,5.7092 11.02875,-0.289 2.39928,-5.5463 4.7148,-9.9794 8.23545,-14.7371 2.10141,-4.8663 4.51452,-9.5264 7.96254,-13.4849 0.23599,-9.7408 -10.68781,-2.4265 -15.78862,-8.6276 -3.60822,-4.7867 -5.41282,-10.3769 -10.08962,-13.3336 -2.26224,-6.0329 -5.2624,-11.9428 -13.67192,-10.4027 -2.56853,-4.1615 -7.09715,-10.8481 -2.70265,-16.1819 4.38284,-3.3865 4.37301,-11.9578 10.20436,-11.9438 10.6049,-0.1549 6.33106,-2.2686 2.36553,-8.5725 -3.98588,-3.339 -6.86533,-9.494 -6.40534,-13.7739 1.63549,-9.5677 10.61626,-12.9346 21.19061,-9.4395 2.88697,4.5859 5.42579,9.172 8.2836,14.0629 -2.08207,9.1682 7.00454,3.2911 6.74247,-2.6309 6.06317,-0.163 10.64477,1.0207 16.95248,-0.4514 5.24927,1.0382 10.84135,9.3173 8.09097,14.2555 -4.54239,6.8945 5.44367,11.7446 5.39397,18.4936 1.66308,5.55 8.15835,14.2069 3.61204,18.012 -5.67997,7.3564 -0.35038,13.7874 10.12876,9.7747 5.29692,-0.7512 11.7742,0.3273 17.85247,-0.4315 4.97987,-1.2376 9.35782,2.6441 14.25551,-2.3117 -2.2607,-4.825 -7.95377,-11.4761 -2.46305,-17.988 4.38596,-5.4326 2.6694,-9.4317 6.89381,-14.3759 4.57016,-5.8629 2.31278,-9.6149 0.70634,-16.1819 2.82979,-4.0677 6.21837,-11.9366 11.04482,-7.7057 5.54269,-0.9953 13.24105,-3.5032 15.79663,2.3117 3.92381,8.5854 6.9476,0.024 8.71019,-4.1177 1.9302,-8.6869 8.80721,-14.6664 19.60818,-11.1899 3.22471,3.7359 10.84177,11.7928 4.18996,16.3672 -0.27918,6.2399 -6.53199,8.8398 -7.46488,13.3225 6.22542,0.3691 11.48601,3.5988 14.2555,9.8908 1.41118,5.3271 6.7946,9.4615 3.32308,14.7371 -0.99091,8.2487 -8.81822,4.0761 -13.72574,9.1505 -3.56083,4.2553 -5.99887,9.4843 -9.48072,13.7498 -1.67479,7.4909 -10.81672,11.1761 -19.28915,10.0921 -4.00391,4.6685 4.46567,9.0619 4.25619,14.3975 4.91838,3.5077 4.87172,9.2714 8.71704,13.5813 3.64537,3.5039 3.8958,12.6028 10.04146,11.6198 2.91583,-5.4894 5.7432,-9.7412 12.30501,-10.8492 5.25207,-0.03 12.9737,-0.098 16.95249,-2.1191 4.0009,2.7514 12.5611,-0.3095 12.85884,-7.4167 3.92246,2.5097 11.7653,-2.68 14.49631,4.3344 1.8138,6.3921 9.25425,10.4727 7.58909,18.7104 -6.96197,9.3019 4.16411,2.8951 8.20754,5.1772 4.91707,-2.1592 11.91194,-2.2132 13.87022,4.2381 5.84195,5.0474 3.18888,9.0897 -0.14448,14.7372 -3.23226,5.9696 -9.67609,3.7377 -14.4963,3.7565 -7.92575,-2.126 -11.92323,-2.2494 -7.3204,7.513 -0.31928,6.8722 -6.98365,10.3186 -7.83813,16.792 -4.718,3.6381 -17.46191,1.1441 -14.50833,1.7016 -1.52087,-7.1291 -9.61838,-7.2354 -13.48493,-6.7424 -4.35209,-1.1761 -12.3668,-0.9657 -16.47089,-2.1673 -8.70629,1.0096 -8.05439,-8.1897 -13.77389,-10.5471 -3.33729,2.1247 -6.48676,8.5448 -8.42809,13.196 -4.20918,4.1594 -4.86282,9.4924 -8.71704,13.7739 -0.42913,4.2621 -10.63137,12.1406 -1.42074,13.078 8.65745,-1.9564 14.43636,4.8278 17.21737,10.4243 3.01223,5.0153 5.86934,9.6842 9.6321,14.2555 6.12285,2.9473 12.29579,1.4052 13.09965,9.6321 3.04024,4.314 -2.1606,9.4096 -4.23812,13.8702 -0.6561,8.3237 -10.65017,6.7979 -13.48494,10.5953 2.84101,2.7361 6.38408,7.7095 8.09096,12.5217 5.59737,5.218 -1.82312,11.8197 -4.503,16.0757 -10.59627,3.535 -17.22022,-1.9257 -19.76988,-10.1038 -1.77173,-3.958 -4.06532,-13.9084 -8.09096,-5.9719 -3.21446,7.0012 -9.47621,3.2849 -15.79664,3.8529 -4.57447,1.9638 -9.46908,-2.4568 -11.17323,-8.4763 -0.2089,-5.9204 3.71152,-9.97 -0.90303,-15.8287 -5.31287,-4.4701 -1.79368,-9.0248 -7.18793,-13.6455 -3.58969,-6.8587 -2.98444,-13.3401 3.08227,-18.4936 -5.1205,-5.0956 -9.25209,-2.8144 -14.2555,-2.1191 -6.11468,-2.2732 -12.57705,-0.5366 -18.49362,-0.7705 -7.7236,-4.4167 -17.3785,1.064 -10.40267,8.0909 4.89538,4.8825 -1.86639,12.1808 -2.84146,18.9752 -1.52253,6.0059 -8.51451,11.2006 -6.79063,18.0121 5.16188,4.6498 -2.4511,11.959 -5.39398,14.8976 -7.76073,-0.5412 -11.46651,-1.1264 -18.8789,0.1284 0.91755,-5.6468 -9.20767,-13.1461 -6.29701,-3.4354 -2.99423,4.5054 -5.66047,8.8235 -7.9585,13.4528 -3.59134,3.1323 -12.71744,1.4928 -16.95248,0.7706 z"
       id="path3280"
       inkscape:connector-curvature="0" />
    <path
       style="fill:#000000"
       d="m 303.2086,2595.4013 c -12.51197,-1.1846 3.58915,-16.4027 -8.47624,-15.9893 -4.16654,-10.854 9.53793,-2.9812 11.9438,-10.4027 2.4509,-5.8461 14.1608,-12.1661 1.73377,-11.9438 -19.82085,5.7251 -12.75351,-14.783 5.9719,-4.6234 12.95625,-2.6475 10.3033,-9.8516 -2.69132,-7.3204 -3.26366,-9.3676 18.43283,-5.841 15.02037,-2.3117 -0.91413,-3.2015 -17.92822,-11.6781 0,-5.7792 0.55816,0.092 3.01962,-9.8023 6.03612,-13.8702 -1.97377,-10.2334 -9.20443,-14.2247 -18.36517,-7.3204 -4.55143,0.3537 -11.43156,-3.0383 -8.2836,-10.788 5.70151,-5.8665 20.33416,1.3842 27.35511,-6.9351 3.35945,-6.6365 8.30041,-13.9877 16.75419,-13.0996 -3.74754,-6.4547 -1.30735,-13.6741 0.96887,-21.1906 -4.35097,0.2141 -11.98117,3.6774 -13.67757,-3.8529 -3.92177,-8.1538 -7.8687,6.7505 -13.67758,3.8529 -9.1231,2.1576 -16.84168,0.668 -20.61265,10.4026 -1.72453,7.7109 -12.62047,16.9654 -15.41138,5.394 -1.31632,-7.0422 5.37844,-10.0961 8.86156,-14.6408 4.36673,-5.5085 -6.50949,-14.0358 -11.75119,-11.9438 -5.47345,-3.493 -11.92496,10.6976 -13.09965,1.1559 5.17656,-8.715 -9.2482,-1.7512 -11.36587,2.8896 -0.90311,7.4488 -11.44305,20.5359 -16.5672,10.21 5.6444,-6.3677 7.2498,-15.6527 7.89831,-17.7231 -9.75904,2.1618 -16.99837,5.3967 -24.17371,9.2469 -3.30319,-7.1632 -3.39939,-8.3409 -12.04297,-11.3659 -9.11346,-8.2596 15.23825,-4.2107 8.28361,-10.9806 5.03993,-12.8196 10.7414,5.0656 18.30098,1.1559 12.95987,6.7343 12.29926,1.8398 5.58661,-7.5131 -9.98509,-9.1828 5.64518,-15.2137 9.24682,-4.4307 1.57388,7.0369 8.17799,15.5371 14.83342,14.2555 0.0312,-0.1663 0.85895,-12.8979 6.93511,-3.4676 6.20353,5.0928 13.39049,0.3166 17.91573,-4.6234 4.58645,-7.4141 -6.81864,-9.3723 -7.70572,-15.4114 -6.51779,-6.686 7.91824,-17.352 10.78799,-5.9719 3.25299,5.1667 6.62149,14.0599 12.13644,14.0629 10.08134,3.2978 17.12151,0.1493 22.73171,9.6321 4.22903,-6.5025 6.37394,-9.9158 13.29229,-7.8983 10.40821,1.0616 -7.05208,-11.987 1.92642,-17.1452 2.01018,-5.5339 -11.3379,-4.0833 -13.48494,-10.9806 -4.3208,-12.5146 -18.88626,-10.3369 -29.66681,-10.21 -4.3811,-5.417 1.06442,-14.478 5.77925,-12.1364 8.15369,-0.388 18.79538,6.1259 19.64944,-7.8984 -0.51705,-11.5854 -15.88687,-12.7887 -11.17323,-17.1451 19.87945,-5.4651 -20.07132,-11.0716 -22.92435,-8.6689 -12.48534,-10.6119 10.707,-12.2091 18.04411,-8.6303 -3.83334,-4.7215 -6.00607,-9.6288 -11.109,-12.9456 -6.6609,-4.31 -13.14985,-7.4607 -4.62341,-12.7143 -9.4346,-9.7454 7.26002,-19.1261 8.66889,-5.5867 3.03157,2.0207 14.28428,-7.0962 9.05413,6.7425 3.41963,3.1074 2.86347,23.4856 9.24681,14.2555 2.16503,-5.8301 10.47514,-16.4387 12.52173,-5.0087 -4.02992,8.3852 -7.12621,14.0296 -8.47625,22.5391 0.6499,9.6568 12.87099,-5.8396 9.05417,5.9719 -1.21807,6.2988 2.9079,18.0303 11.36588,13.6776 8.55079,3.9259 7.51315,-10.0542 10.98059,-14.8334 2.84717,-8.1707 18.5533,-2.2492 11.36587,5.7792 -2.50485,6.2662 -9.20832,12.4024 -7.89832,17.7231 4.67523,8.2076 5.11468,31.2193 5.58662,26.1993 8.64842,-4.6418 10.25648,13.8908 16.5672,8.091 2.57508,-6.6749 7.15788,-8.7591 11.55852,-7.5131 2.40451,-1.4256 -1.53451,-13.1757 1.92642,-17.1451 8.17826,-8.9164 1.39099,-19.3476 -4.23813,-27.3552 -4.93918,-12.6348 17.99372,-9.2581 13.09965,1.1559 3.05322,8.5139 6.32455,10.7876 13.67758,6.1645 8.91643,1.7745 5.65323,-17.9288 12.61523,-20.42 7.4574,6.4606 7.73061,-5.0888 1.06235,-6.9351 -3.9596,-5.5246 -11.45638,-17.4307 -2.50435,-20.0348 8.60123,1.3664 6.8616,15.6314 13.91838,17.4341 -2.15516,-8.2676 4.5954,-11.2778 5.53845,-18.5899 -2.74645,-4.2874 -5.90401,-12.8605 2.50435,-11.9438 5.22256,9.7064 9.93393,-9.5748 15.98928,-2.3117 6.58947,4.4148 -8.47432,16.9169 1.73378,13.0996 11.05884,9.0753 -8.17889,4.9279 -8.47625,12.7144 0.66519,6.7485 -16.85482,11.2116 -7.51303,13.0996 14.27318,-10.3064 23.46821,9.4563 10.40266,9.0542 -4.53598,0 -10.12695,0.524 -15.15448,-1.5797 -2.14218,4.0939 -5.54524,10.3067 -8.92576,16.4131 -7.99838,5.1298 -1.52172,11.5328 -1.73378,18.5872 8.02273,1.5992 11.36834,-1.673 17.14513,-2.02 13.76774,1.2418 3.85789,22.0407 -10.91435,12.7344 -10.00286,-0.7909 -14.3153,10.2036 -19.33043,15.3914 -13.74581,0.1515 -5.31056,6.9922 -6.35718,13.0996 -7.79587,9.5864 -0.69995,11.3779 7.51303,9.8248 3.13275,9.3957 7.58428,7.4247 12.47357,0.6956 11.38244,0 22.72196,-2.5203 26.4401,-13.9879 0.84689,-12.6941 20.13609,-8.1416 12.52173,3.4675 -2.50123,4.365 -13.78731,11.5055 -6.93511,15.4114 5.63955,6.3191 9.14756,8.3044 17.14513,5.2013 12.39443,1.7023 20.74268,3.8007 22.34646,-10.0174 1.6022,-12.2597 19.57939,-6.6039 9.6321,3.6602 -8.51682,8.0124 -5.38512,14.1467 5.77925,6.3572 6.87054,-0.7291 19.66662,-12.8305 15.98928,1.7338 -0.13415,4.8258 7.56702,-1.3901 9.82474,3.4676 4.98003,5.5893 -9.37569,8.0148 -6.35718,8.4762 -6.81163,-5.4841 1.49151,14.6851 -9.05417,8.091 -2.99296,-5.2374 -23.61008,-12.0616 -21.19061,-5.7793 4.49768,4.6943 15.06956,20.4911 -0.18694,17.7231 -3.94639,-4.6029 -8.06954,-12.2912 -8.09667,-18.6863 -10.34309,4.072 -22.23958,-0.4107 -30.05213,0.9632 -4.56273,5.8925 -12.09137,7.8414 -4.62341,15.4114 8.48599,2.8219 10.42963,20.1929 -1.73378,17.1451 -6.40808,-6.4111 -7.00658,-17.7775 -16.5672,-20.0348 -11.71552,6.8097 -20.0024,-14.9273 -25.62138,-4.4307 -1.6573,8.3091 -19.21306,-2.4245 -10.98059,9.6321 8.47236,5.5272 -8.73681,16.2201 5.77926,14.8334 5.72736,3.7217 7.54944,10.8719 13.67758,14.8334 7.37595,4.7554 33.36669,-2.0688 21.76853,13.2923 -6.59941,4.5169 -9.04889,-1.0051 -18.68056,-0.5779 -0.54306,3.7423 -8.37707,13.6288 -0.39099,16.7598 5.37433,5.6698 3.9823,18.4062 10.8758,17.5304 8.48768,-0.5589 28.61352,-2.0333 21.2954,10.788 -3.74288,0.9996 -9.04211,0.9153 -14.83342,0 -13.66271,-4.0842 7.83513,12.9604 4.6234,10.7879 3.03249,8.1245 7.27894,4.5804 12.52173,8.6689 -7.40836,4.876 -7.56108,6.0983 -4.04548,14.8335 -4.77186,9.5219 -10.39315,-1.1944 -14.83343,-2.8897 -9.64246,8.0013 -7.25771,-13.9321 -7.89832,-12.5217 -1.49059,-3.9036 -4.64186,-22.1739 -7.51303,-8.2836 -0.30584,10.5028 -16.20508,17.4795 -13.67758,2.5043 3.04921,-9.3811 9.99083,-10.2046 11.36587,-19.4568 -11.89941,0.3099 -9.83429,-14.5646 -15.98928,-20.998 -6.89111,1.3727 -12.85029,-5.7049 -14.83342,5.5867 1.77989,8.1238 -11.20899,17.8351 -15.41136,5.7792 3.95409,-9.3786 14.58515,-18.6453 6.16454,-29.0889 -3.6306,-5.0371 -2.59508,-23.5194 -2.11906,-18.8789 -4.11706,1.9997 -8.94617,0.6411 -11.55851,-5.7793 -5.47022,-10.4274 -7.84034,11.3814 -14.83343,6.3572 -6.23563,2.0698 0.42635,17.0455 -7.32039,24.4655 -3.20815,6.6342 3.83461,12.0175 6.74246,18.8789 9.40948,10.5809 -12.69117,12.8906 -13.67757,1.7338 2.72403,-10.2229 -11.14249,-13.8373 -16.56721,-7.4196 0.0239,9.3997 -13.61123,7.5992 -3.46755,12.6209 4.87996,9.3141 -9.15858,-5.99 -9.05417,1.1559 3.03249,8.4679 14.14469,6.4296 13.09965,14.2555 -6.45062,-0.4665 -10.36156,-3.7571 -13.67758,-11.1732 -5.16346,0.5028 0.82759,17.4053 7.3204,20.8053 6.84522,11.0622 -8.15592,10.028 -9.05417,0 -4.74986,-15.6138 -8.51,0.676 -8.66889,7.513 -3.81161,4.6655 6.01702,16.9734 -7.32036,13.6776 -2.87795,-10.4618 -5.03631,5.6737 -9.24681,4.0455 z"
       id="path3457"
       inkscape:connector-curvature="0"
       sodipodi:nodetypes="ccccccccccccccccccccccccccccccccccccccccccccccccccccccccccccccccccccccccccccccccccccccccccccccccccccccccccccccccccccccccccccccccccccccccccccc" />
    <path
       style="fill:#000000"
       d="m 580.95783,2531.8646 c -6.70675,-0.5798 -7.99452,-8.8942 -11.9438,-13.6776 -2.96822,-6.6557 -7.8159,-11.0657 -5.58661,-17.5304 6.05712,-2.6788 6.38253,-12.2093 11.59061,-15.8448 0.51631,-8.9616 11.70835,0.7079 12.29698,-10.1618 5.78912,1.6457 19.93748,-7.6973 7.07301,-7.3204 -9.35928,1.9456 -17.52002,-1.4245 -19.36999,-11.3177 -5.20554,-4.3304 -7.04164,-10.2172 -1.95852,-15.6522 6.41571,0.2981 8.78436,-3.8462 17.14513,-1.7338 4.8918,0.062 7.05725,-4.1519 11.36588,-7.8983 4.07568,-5.5481 8.03582,-5.7771 13.29826,-9.2254 10.91413,2.2731 9.94279,-2.5244 5.00268,-9.6535 -4.11834,-4.175 -5.85639,-14.7807 -10.78791,-14.8334 -2.21577,6.0679 -6.36038,10.2915 -12.13644,12.5217 -6.45366,3.8201 -16.86881,0.8296 -19.45683,9.6321 -3.7341,5.0602 -6.53773,11.5248 -13.09965,11.5585 -8.26908,0.4059 -9.0141,-10.0166 -13.67758,-15.4113 -4.94404,-6.4565 3.45738,-12.5302 5.20133,-18.301 4.50308,-7.861 -7.93203,-1.7806 -8.09096,2.697 -3.65469,2.8597 -9.55885,1.1461 -13.09965,6.3572 -3.17994,4.5869 -11.58618,0.3015 -15.98932,2.1961 -7.03297,1.485 -12.04166,1.2713 -15.98928,-5.0858 -3.26913,-7.1894 -8.7867,-13.8326 -11.55851,-21.3832 2.77181,-7.5507 8.28938,-14.1938 11.55851,-21.3833 3.94762,-6.357 8.95631,-6.5708 15.98928,-5.0857 4.40314,1.8946 12.80938,-2.3909 15.98932,2.1961 3.5131,5.3495 9.66199,3.2843 13.09965,6.5498 0.74996,6.144 14.28278,9.0542 7.07269,1.6053 -1.02913,-6.2456 -10.32676,-12.6069 -3.02721,-18.5578 3.11244,-5.2701 5.01609,-14.7327 12.52173,-14.2555 6.48309,0.023 9.40809,6.5002 13.09965,11.5585 2.77381,9.924 14.81139,4.7835 20.61268,10.788 7.29381,-0.209 7.76312,8.9772 12.32905,11.9438 3.68789,-4.1563 6.30913,-11.2425 10.01738,-16.5672 6.3984,-8.1123 2.35724,-10.0806 -7.51304,-8.5813 -3.93205,-4.6098 -8.1397,-4.6083 -12.52169,-9.1418 -3.25638,-5.0452 -8.27504,-10.6434 -15.92316,-7.3204 -4.63789,-2.9641 -10.22902,1.2332 -13.16576,-5.7792 -4.89665,-5.2522 3.32106,-10.3372 5.00868,-15.4114 2.44005,-10.504 13.32266,-7.9732 21.6911,-8.0909 6.73904,-5.8259 -8.69578,-4.8126 -11.28843,-9.0542 -2.6778,-5.6957 -9.71802,-3.1694 -13.09965,-9.2468 -3.25018,-5.1773 -5.72482,-12.1078 -10.40267,-15.9893 -2.21773,-6.0839 4.4023,-13.1135 7.51304,-18.8789 2.27641,-4.7642 6.20261,-13.3052 11.75116,-10.9164 5.35513,-0.5212 9.94225,-0.3826 13.87021,-0.4495 3.6602,0.9344 7.3204,-2.0047 10.98059,1.7338 5.28525,-1.8206 4.36889,8.9103 8.47621,11.9438 7.2695,8.1877 3.65272,17.4076 5.09126,27.3551 -5.4804,8.1775 2.08627,13.7888 4.73348,3.275 3.69017,-4.1874 4.96249,-12.4676 11.36587,-8.2836 9.44516,-6.2032 26.84326,1.2971 18.30098,13.0996 0.77808,5.929 -8.93854,13.5833 -2.3117,20.6127 -1.52507,5.8831 4.00776,13.7006 0,19.4568 -5.26937,8.0028 -4.1759,8.1841 1.46889,8.3371 5.78435,-1.4803 9.12272,0.3385 15.09831,-0.6314 5.87766,2.2157 10.44466,-1.5232 4.04548,-8.8615 -1.29073,-7.7323 1.32245,-12.7329 0.70635,-19.6495 5.95899,-5.849 1.38663,-10.4966 -1.8622,-16.9525 -3.80756,-4.4502 -3.34476,-17.3322 3.46756,-15.4113 3.61612,-1.6098 9.95296,-0.4142 13.67757,-0.578 5.64769,-1.7354 8.43402,1.3829 11.36588,7.5131 1.1911,5.303 8.62434,12.7815 8.09096,3.8528 -6.16112,-6.9152 2.72299,-15.6805 -2.88963,-22.7317 3.75675,-6.716 8.81826,-13.1173 10.21002,-20.0348 3.37135,-6.7355 10.28924,-2.7621 15.604,-4.0455 4.98707,-0.034 8.69231,0.5978 12.52172,-0.5779 4.46043,-0.3623 8.5286,2.4838 10.78795,9.2468 3.35736,6.6675 8.9182,13.0064 9.68715,20.099 -5.18962,6.6588 -8.49508,14.785 -13.1868,21.3973 -7.20412,-0.7514 -8.67467,4.2921 -13.57937,8.2053 -11.19138,-2.133 -14.49164,9.6498 -0.25876,6.1646 10.70126,-3.1107 12.9734,7.034 17.33778,13.8702 6.03597,4.0574 0.11994,14.3779 -4.04548,13.6776 -5.95772,0.6227 -12.08451,1.5123 -20.2274,3.0822 -1.87002,6.163 -9.75936,9.4809 -13.09965,12.7144 -0.58302,5.0383 -22.03092,0.8408 -14.30367,3.8207 2.54238,7.4003 8.21791,14.5699 11.41404,21.4154 1.67309,9.0268 3.72353,-0.7508 7.12775,-5.0087 4.79728,-4.8424 13.32342,-7.7574 20.61268,-9.2468 5.97942,0.2069 5.96266,-4.1777 9.6321,-9.0542 4.2449,-4.8868 6.06729,-11.1725 14.44248,-8.6689 4.45261,1.4265 6.70702,10.0929 9.63776,14.2555 6.18199,5.4558 -0.999,11.2287 -3.90786,16.503 -4.16249,8.5914 4.4471,8.0698 6.79749,1.0274 2.05949,-3.9137 9.16671,-1.8193 13.09965,-6.5498 3.44463,-7.2895 16.72814,0.637 22.92439,-4.0455 4.44821,-0.4005 8.25466,2.6711 10.78794,9.2468 3.23485,5.9315 7.07297,12.6703 10.98059,18.6863 -5.40869,7.5005 -9.40139,15.6732 -13.87022,23.5023 -4.2459,7.5605 -10.28515,1.0219 -19.07155,2.8897 -7.54828,1.3016 -10.82832,-0.7748 -15.60399,-5.6509 -5.89581,-1.4916 -8.5419,-1.2677 -11.55852,-6.8709 -5.12801,-7.7886 -7.75268,3.5297 -1.73377,7.8984 5.20456,5.6622 3.6266,10.597 -0.57793,15.9892 -3.7183,5.7284 -4.78642,13.7986 -13.3527,10.9806 -5.27943,-0.3771 -7.21313,-8.5594 -11.5302,-11.7993 -1.21742,-7.4611 -6.06745,-4.4822 -12.87491,-7.6575 -6.84842,-1.7145 -13.97175,-4.532 -17.14514,-10.9806 -3.14853,-8.5902 -3.18121,-4.6347 -6.16454,1.1558 -3.43704,6.2545 -7.79067,12.1953 -10.06554,18.7184 -7.49997,2.1506 15.28352,-0.3048 16.80801,5.9398 5.41339,2.2019 8.66203,9.5426 13.87022,11.8337 8.49023,-0.5281 13.23307,2.6724 19.26419,1.8439 5.1242,4.9533 5.44344,10.9513 0.57793,15.9893 -3.77979,8.9865 -10.0118,14.4641 -21.08828,11.5787 -15.55083,4.4223 9.28121,3.9014 9.14448,11.9236 4.06998,3.1533 12.25638,-0.319 12.65935,8.1551 3.79789,5.1867 7.14562,11.2407 10.26504,16.6957 -1.68843,6.318 -6.46588,12.57 -9.24682,18.4936 -2.78733,5.4396 -6.09388,11.3941 -10.78794,9.2468 -3.95645,0.68 -7.2265,-1.2158 -12.32909,0.578 -4.69769,-2.6754 -13.91699,2.3241 -16.37456,-4.6235 0.41892,-4.4936 -5.03466,-9.8191 -7.32039,-15.4113 -6.63105,-5.2281 4.83184,-10.4419 -1.73378,-15.9893 -5.11907,-5.2345 4.99497,-10.0598 1.15585,-15.9893 -6.52231,0.2191 -6.69693,11.3684 -11.78325,14.4963 -2.3772,3.4948 -8.44511,0.7748 -12.87491,1.493 -4.97044,-0.723 -10.39411,2.7983 -13.09965,-4.0455 -2.7119,-6.5048 2.74688,-12.5227 5.20133,-18.8789 4.12712,-6.0471 -3.79724,-13.2318 -1.73378,-19.4568 -1.78255,-4.9031 -0.8131,-13.0087 4.04548,-18.301 -0.95034,-1.2072 -7.96177,-0.6957 -12.13644,-0.5779 -4.97767,-0.6726 -9.20401,0.7182 -14.2555,-0.5779 -7.80651,-0.4311 4.43346,8.2908 3.33914,13.4849 -2.72215,4.8587 -0.61549,10.0527 -2.76122,15.7966 -5.99829,7.348 4.71842,14.3694 3.9079,20.3558 5.87346,11.7079 -10.38155,16.9529 -19.31925,11.6228 -6.7385,4.2501 -7.82531,-4.663 -11.9438,-9.2468 -2.78957,-10.1062 -9.39252,-2.64 -4.04548,4.6234 0.51516,5.5917 -6.5024,11.1845 0,17.1451 -2.96268,7.1811 -8.74359,13.9231 -10.56317,21.5277 -4.05612,1.9028 -8.96463,1.4867 -12.36118,2.5526 -3.66312,-1.1704 -7.94779,-0.5535 -12.52172,-0.578 -1.33725,-2.3393 -3.83416,1.2123 -4.62341,0 z"
       id="path3574"
       inkscape:connector-curvature="0" />
    <path
       style="fill:#000000"
       d="m 112.19919,2414.5917 c 7.91577,-7.808 -5.48263,-11.0816 3.99974,-11.8313 7.28981,-6.2834 -11.10036,-5.6933 4.91973,-9.2625 1.42363,-4.0369 -11.42074,-7.1042 1.48512,-8.2201 4.15039,-8.2931 7.52182,-15.6041 -5.63574,-13.8344 -16.59647,-11.3995 23.69029,-4.9459 19.79565,-19.3733 14.22343,-15.4287 -26.00728,-8.2748 -13.34554,-26.4055 8.59842,0.012 32.06677,-0.8242 15.0221,-9.5007 3.90378,-7.4874 31.37654,-28.8041 8.71162,-22.1318 -9.76791,5.3037 -21.17185,5.5611 -22.44452,-4.7791 -6.52336,6.7694 -17.66609,29.8398 -22.51149,8.2122 9.26851,-14.2201 -1.87765,-18.0088 -13.619311,-16.0831 -6.307929,3.787 -22.938336,26.0957 -18.19785,4.8704 9.870949,-10.1264 -12.379077,-12.0509 -15.439039,-4.2499 4.298573,-12.4391 -11.705278,-1.475 -9.654262,-2.9079 2.818143,-10.7515 -15.148782,-0.4392 -17.409847,-10.3019 8.651425,-4.8727 19.014986,-0.67 17.975779,-8.6301 5.169061,6.7932 11.892587,5.9924 9.08833,-2.6081 2.766773,7.8952 18.495573,-2.257 17.833097,0.9665 -9.686471,-14.5823 3.167068,-19.3239 10.381238,-4.1463 6.005507,8.0276 32.015495,5.3473 19.223855,-9.3113 -1.76451,-16.1143 13.54861,-14.2886 16.66047,-1.2695 8.79792,18.2372 8.20397,-14.063 22.65169,0.3452 10.27145,6.3368 22.91081,1.8721 8.04263,-7.8612 -8.11187,-5.401 -15.94011,-15.3843 -4.26735,-19.2047 -8.62058,-5.0264 -33.57849,1.807 -20.61188,-15.8997 9.34298,-2.8671 21.16206,-4.0764 10.97462,-15.8672 2.23387,-11.2656 -38.848129,-7.9541 -16.74359,-17.6135 16.7993,2.0197 1.307,-15.0247 -2.66054,-17.318 16.85817,-2.1228 -13.39044,-8.3463 2.40174,-10.0702 -3.51756,-6.9475 -12.34312,-3.6704 -2.15924,-7.0134 -10.14289,-9.4016 1.6237,-12.4227 6.63031,-1.4532 -0.0297,13.9049 10.42459,-7.9159 6.25616,9.2631 1.32445,6.7282 11.65411,-9.0478 6.4955,4.2006 2.98356,6.8979 9.38078,17.5428 13.33246,4.3804 20.04509,-14.2513 -5.58201,21.4097 8.9399,26.5013 5.16041,19.4736 24.05689,-19.5233 27.75808,2.0988 -4.91033,8.8431 -12.60144,23.8541 2.32419,17.0283 4.28439,7.2205 6.54061,39.4362 14.26344,18.9154 -0.71632,-12.7676 7.0901,-22.2775 14.60595,-17.9107 -6.14585,-9.983 -13.41581,-32.0235 6.79036,-21.9977 9.0482,21.5177 27.11466,-9.8856 15.33996,-21.0029 -4.21474,-19.1698 16.6814,3.1026 13.57636,2.8035 9.90954,-3.2819 3.93429,-23.2035 12.09676,-11.7647 5.31611,-5.89 -3.64563,-14.5042 6.51523,-8.8824 1.82458,-6.0325 -3.58222,-11.2039 4.39828,-4.2115 0.85922,-11.7136 13.55895,-8.0953 4.8743,1.8519 10.97554,1.95 -10.2012,5.673 0.0724,9.9483 -9.01595,2.3287 -7.13943,6.9029 -0.89483,9.5613 -10.12048,-3.189 -16.22168,20.0361 -2.47071,15.0082 23.65104,7.9953 -21.99003,6.1692 -18.49123,21.3694 -12.16911,13.7036 25.17938,7.191 15.05142,24.2882 -9.16509,1.8283 -30.84336,-0.1247 -17.10441,11.0026 -1.27109,6.8703 -27.30129,21.2457 -11.87614,22.1997 9.40177,-4.4166 26.09978,-9.1496 25.35449,3.9347 8.03721,-9.3998 18.31921,-27.5193 24.95534,-6.8155 -9.31497,11.2882 0.22596,15.6546 11.17246,15.9455 5.87033,-4.9766 25.2985,-27.7342 19.04219,-5.9934 -11.60891,9.133 12.90361,12.9922 14.33021,3.7859 3.25044,1.6346 -2.0345,13.692 7.71669,5.3847 6.94983,-10.0522 -1.15412,12.4056 10,-0.451 -3.38953,7.5099 21.39443,6.2659 3.48239,10.2065 -7.00904,0.8063 -1.16217,6.9238 -9.2126,0.8283 -3.98687,4.134 2.66443,10.754 -6.61193,1.1405 -9.84219,-2.9967 0.73189,16.2447 -8.8633,2.5584 -12.67815,-0.165 -16.98874,2.2099 -9.43333,13.4745 -2.77088,18.0028 -16.2458,-18.3664 -25.71222,-8.9385 -18.12572,-2.3951 -4.44668,9.4911 -7.49138,17.2604 -8.05748,22.5896 -16.85032,-12.0219 -25.31492,-8.1975 1.98444,18.4067 -21.58769,-2.0524 -29.10789,3.1201 3.18834,11.5429 25.80658,18.7499 12.57058,29.2591 9.16367,3.1028 33.8117,-0.421 18.78405,15.2941 -6.83586,4.4054 -21.63615,2.3197 -10.78668,14.454 -0.89532,12.7357 43.00997,12.9953 15.30606,19.5224 -12.0355,-3.0542 -3.1008,18.1393 4.96974,15.4884 -10.25899,1.5682 -4.68486,7.1565 0.83417,9.9194 -11.34703,2.6047 11.74161,7.3141 -0.27066,8.7754 8.56367,10.8138 -4.02841,12.6859 -5.30747,1.5696 -8.53188,14.1859 0.83772,-14.2027 -9.86331,-0.8822 3.7695,-6.6125 -0.13346,-17.4607 -5.88043,-6.7829 3.07726,-7.7716 -8.86342,-27.3745 -12.69468,-11.1846 -20.27036,16.9041 6.21128,-22.0475 -9.61441,-27.2237 -6.88067,-16.507 -18.841,19.1681 -28.09713,1.3189 2.397,-7.901 15.37613,-28.387 -0.30419,-18.5319 -6.77078,-4.637 -6.14974,-39.4031 -15.05207,-20.6806 -0.28045,12.4463 -6.72005,23.398 -14.92151,20.5121 7.25351,10.4053 10.77485,31.8463 -7.68548,19.5234 -7.32725,-18.3049 -25.4842,9.0057 -14.86753,19.0903 7.18697,18.1267 -9.31854,8.7239 -12.3407,-1.0966 -4.69665,6.8557 -9.82832,11.1245 -8.0208,18.67 -9.92746,-15.5021 -3.01623,15.0233 -10.75663,0.8591 -1.67066,4.3684 -8.31315,19.1789 -13.25811,12.9852 z"
       id="path4698"
       inkscape:connector-curvature="0" />
    <path
       style="fill:#000000"
       d="m 112.57936,2597.1346 c -4.85783,-6.4473 -9.528,-12.6672 -14.202628,-18.8883 -4.261077,-4.4108 -8.045389,-10.6275 -2.32224,-16.0638 3.003276,-5.4086 -4.706735,-11.6838 -8.202404,-7.2733 -2.091729,5.6358 -4.658363,11.9214 -7.284003,17.6238 -5.516186,-0.2621 -11.247109,3.577 -14.639044,-4.307 -1.88591,-5.3049 3.865903,-11.983 5.160927,-17.9935 4.813239,-6.8883 -3.507216,-12.6739 0.117681,-19.8422 -6.389582,-2.3719 -7.759335,7.1317 -12.481551,5.9548 -3.715296,-0.4602 -11.057423,2.2593 -9.897687,-5.6665 -8.298976,-5.0153 4.916869,-13.2317 -1.943391,-18.7875 -3.063958,-5.9394 -7.027277,-14.7517 -9.047721,-19.5815 0.196337,-2.7941 -3.531134,-14.833 -6.706628,-9.4 -0.764268,3.8542 0.884893,9.8684 -0.427988,15.6076 -3.411192,5.2647 0.07579,10.7086 -4.246456,16.1212 -2.554898,5.5505 4.420457,9.5555 4.917859,14.8887 1.707836,5.8156 -1.183642,13.4442 -9.558776,11.7596 -6.75633,-1.3972 -17.1978418,-3.8016 -9.987224,6.2246 -3.7539129,7.3874 3.762636,12.5786 7.123994,18.2852 6.720302,3.6102 4.344842,17.4344 -3.306317,14.4397 -5.392818,3.6288 -9.0985622,-7.4754 -13.5318037,-11.0091 -2.26072222,-11.1869 -7.5520293,-3.3112 -10.651553,3.1818 3.5764319,4.5879 10.2364136,9.9168 4.9948851,15.4615 -1.0934201,8.1988 -6.9080894,15.1457 -8.8589194,23.739 -4.895028,5.2085 -11.354685,1.7072 -18.336887,4.7984 -6.646046,2.9717 -8.192364,-6.0602 -12.195,-9.2451 -6.741076,-5.0944 -6.323379,-11.783 -2.909791,-18.3336 2.935482,-5.7482 6.532002,-11.5682 8.330164,-17.9661 2.411361,-9.1983 19.175889,-0.01 15.285905,-9.7335 2.058175,-10.2086 -3.986447,-3.2625 -9.71418,-5.2053 -3.167365,1.5234 -9.702272,1.7589 -13.173699,1.7717 -5.403802,-3.9401 -4.792052,-10.2915 -0.677402,-13.7097 4.854684,-0.4473 9.544159,-0.8139 12.954264,-2.1988 6.558914,0.4386 8.950563,-1.2215 11.833527,-7.1603 10.167058,-0.1143 10.815826,-9.5147 2.409622,-8.099 -4.619514,-2.4069 -13.250569,-10.1504 -7.935764,-15.6492 1.874051,-5.6848 11.129502,-6.2268 17.0593627,-10.4579 2.2430608,-5.7934 5.0962726,-10.0313 7.9542965,-13.121 3.490398,-4.6381 9.3892245,-5.2624 10.6673805,-11.7365 5.5712503,-6.9783 -11.0512927,-2.4702 -10.8055857,2.0363 -3.4304902,0.4653 -11.251598,4.5983 -15.410155,5.3767 -4.165577,-0.2015 -11.387253,1.8384 -12.554239,9.269 -2.363003,7.3257 -13.430555,7.56 -16.078804,-0.559 -5.864439,-3.0039 2.910146,-16.6905 -4.377583,-9.9077 -2.873778,1.7677 -7.445587,8.5508 -13.30671,8.0096 -2.687158,6.6822 -6.050593,13.7444 -7.862823,19.9442 -5.035656,1.973 -11.357671,3.6701 -13.256095,-3.9515 -1.38079,-4.8468 4.462851,-12.2577 5.93,-17.6433 6.991881,-9.2972 -16.600121,-4.8209 -10.037278,-5.259 -2.270044,4.5359 -3.276897,12.0947 -8.262407,10.8299 -9.570111,-0.3307 -28.386181,10.8877 -34.156171,-1.0436 -2.61933,-6.4727 -13.47069,-8.6008 -9.23535,-16.6406 5.80628,-3.4309 3.93362,-13.987 9.86031,-16.7745 10.42843,-2.1168 23.21183,-2.3456 29.59307,-3.4981 5.314523,4.7736 7.90535,13.2222 16.046475,8.0274 5.388609,-3.6399 -3.717501,-10.092 -6.047989,-14.6202 -5.867956,-2.9099 -2.98238,-13.7433 1.117931,-13.3679 5.395416,-3.9116 9.966753,-0.1997 12.812903,5.6632 4.48252,3.3552 6.880362,12.0829 12.055764,11.5964 6.447326,-0.175 13.454333,8.6979 11.085292,-1.8147 -2.007086,-4.4076 1.019118,-14.1386 5.779223,-15.8737 4.564322,0.3916 13.569507,0.8895 15.879496,8.2312 5.803503,5.2567 11.126481,-1.4382 16.158685,2.7188 5.237652,-0.1931 10.2657447,0.2649 13.8004504,1.8049 7.3492814,2.2156 12.9332236,-0.3955 3.9145955,-5.5802 -4.443571,-2.3654 -9.4898453,-6.6892 -13.9505229,-9.7865 -4.913675,-2.1682 -8.673756,-12.9477 -15.107256,-8.2704 -6.408565,1.4782 -9.183298,-2.3335 -13.411342,-5.7771 -2.573133,-5.9815 2.49615,-12.3066 7.062465,-16.3801 11.719937,-3.286 -5.175175,-4.5674 -7.459357,-8.2522 -4.312559,-6.1697 -7.127643,-0.3964 -12.949193,-2.3406 -3.167357,1.5234 -9.702267,1.7588 -13.173695,1.7716 -5.70218,-3.6771 -6.911076,-12.0581 -0.677402,-13.7096 4.854683,-0.4473 9.544155,-0.8139 12.954264,-2.1988 5.916403,1.7971 12.005317,-3.1108 4.754884,-7.7634 -3.549308,-2.5309 -13.022816,0.6544 -17.194259,-4.8958 -2.950063,-5.7889 -7.973252,-10.2527 -11.980683,-15.4777 -5.125858,-4.7809 -6.729189,-10.9713 -1.712322,-17.0692 1.621129,-5.0252 4.37393,-14.0131 10.1914,-12.3852 5.237847,-1.2303 9.80255,-1.7043 13.686561,-2.2941 4.721592,-1.8992 7.785315,6.9765 11.251921,9.9551 4.256951,5.0323 7.65932,9.6895 10.608687,15.2897 6.370926,6.6814 -4.559064,14.9786 4.542569,20.7705 4.294451,-0.1576 4.871568,-10.9698 7.837128,-15.4378 3.99705,-4.6185 2.326699,-11.914 9.615991,-10.8824 4.0152743,4.3814 8.3899988,9.051 3.5642803,14.9412 -1.1283383,6.5787 -8.5971733,13.3244 -3.3655933,18.3352 3.2964811,4.7283 -2.101954,18.2036 6.7467941,11.144 5.2105748,-3.6399 19.2134769,-7.6081 18.1811319,2.22 3.400195,7.7087 -5.3609394,13.1491 -0.117712,19.8422 5.87764,3.3818 3.240129,9.8959 8.124511,13.68 1.01159,4.4963 6.509505,21.1449 7.615351,13.7485 2.910515,-6.6751 0.0055,-12.9457 1.810348,-20.2642 -1.181445,-6.8141 7.899529,-13.8114 -0.225078,-19.0186 -3.015259,-5.7126 -1.318534,-13.3263 0.931959,-18.591 7.161409,-0.7767 13.836648,-2.5073 17.619916,3.3322 5.731582,-1.3287 1.799529,-14.1646 -0.666861,-19.4127 -3.118407,-6.1742 -12.950041,-11.3066 -7.748116,-18.5901 3.474074,-4.1524 10.544783,-6.5606 13.632579,-1.2501 4.430367,3.5259 6.944333,15.1011 13.733912,9.6212 6.043112,-5.3581 -2.753496,-8.6626 -4.039192,-14.6181 -4.955513,-3.6057 3.006424,-10.2325 3.712764,-15.2719 2.961901,-5.3917 4.183655,-13.6243 7.606058,-17.156 5.081435,-0.5755 10.008811,-0.6973 13.478523,-2.3957 3.865834,1.4659 7.718615,-3.104 11.307919,3.1443 2.370582,6.1943 12.940362,11.4009 8.816622,17.8632 -2.4643,7.7242 -5.52954,15.2209 -10.133418,21.9018 -0.30961,7.2362 -6.504797,8.8092 -11.986951,9.7018 -8.128325,2.1277 -3.199578,12.6929 2.637488,8.531 3.838297,-1.3579 8.809699,-0.1772 11.951146,-2.1903 3.941145,-1.1983 12.181445,4.5437 7.051605,10.5199 -4.02223,6.0603 -12.332032,2.3016 -19.997639,5.7125 -4.789016,4.0771 -10.215296,8.8741 -14.762948,10.4303 -2.161866,5.6557 9.751654,3.386 12.269075,8.8463 5.008124,4.7957 5.408742,9.5538 -1.117932,13.368 -2.520172,7.9519 -13.735881,4.2018 -15.913813,10.3038 -2.2053,5.5508 -4.426515,14.0319 -11.549588,14.9328 -1.042721,3.858 -13.108524,14.0673 -3.327385,11.7536 6.371736,-1.401 6.197988,-4.7829 13.51212,-6.4821 5.525756,-5.7146 15.913744,-1.4507 19.684205,-8.284 2.627443,-5.6188 9.383407,-15.4114 16.067865,-9.1584 6.83101,4.3594 3.44082,13.025 7.36299,15.7262 3.37017,-1.4879 6.75392,-9.276 11.51138,-8.3512 3.39656,-2.8883 5.8005,-11.046 8.19331,-15.68 0.29772,-6.8404 6.44472,-6.4592 10.13804,-7.0003 6.55974,1.8714 8.33958,7.0943 3.95996,12.1019 -0.76227,5.9469 -7.70374,12.8569 -4.66517,17.3438 4.14785,-2.8184 10.17937,5.1171 11.37509,-5.0285 2.62428,-10.7859 16.86744,-5.8158 25.84213,-9.6953 6.38192,-0.6283 12.64496,-3.8747 14.93843,3.628 2.87529,5.2772 11.50033,10.1661 8.58555,16.1449 -1.62552,6.1815 -6.02602,11.4799 -6.38349,17.5748 -10.58173,2.0419 -21.53749,1.6691 -31.77029,3.6893 -5.21796,0.1497 -8.11734,-11.8926 -15.56613,-8.7918 -6.47851,5.464 3.38979,11.56 6.29448,16.453 5.04694,3.4099 1.43076,13.8695 -3.48604,13.1033 -5.02201,3.818 -9.26282,-3.8314 -12.917,-7.6416 -3.28806,-4.0862 -8.4724,-15.0638 -13.69565,-9.5778 -5.66581,-8.4673 -12.62952,-3.4017 -7.44272,3.9165 -0.67532,5.8668 -3.4768,15.5046 -10.29181,12.6023 -7.038584,0.9275 -9.857918,-7.3925 -14.157921,-9.8975 -7.172135,2.0692 -15.786639,-1.0296 -19.750732,-1.1099 -8.28863,-1.2136 -10.390192,-1.3256 -16.57434,-2.5576 -4.370205,1.3346 7.142877,10.5369 9.875302,8.3907 2.164375,6.8966 10.372654,6.5272 12.591666,12.6906 4.383019,5.5685 9.358286,6.4755 14.898567,3.8277 4.177675,2.0708 13.367788,4.9375 9.764688,11.9044 0.2258,7.9269 -11.232804,8.5374 -11.626992,14.2369 7.34477,-1.3752 9.427005,2.9588 15.024022,6.6876 4.51317,0.8336 9.0286,-0.7968 13.55556,-1.8229 3.69967,1.7134 7.57808,-3.0367 11.72664,1.9218 5.18014,4.0133 1.03137,14.8072 -4.09898,11.4363 -3.51755,1.6468 -7.38929,1.5517 -11.95113,2.1903 -5.4563,-1.7123 -11.65362,4.3089 -2.81714,7.9595 2.83231,3.5548 12.35962,-2.6384 14.052,5.1727 6.63687,6.6928 12.63925,13.4846 17.73988,21.6521 3.70516,4.6091 -3.06526,11.6352 -4.0924,17.2667 -1.52804,6.9907 -6.25361,6.0705 -9.99847,6.5928 -3.82767,0.4386 -8.22043,1.1766 -13.80639,1.4031 -0.44778,0.5673 -1.12184,2.3876 -1.5445,0.078 z"
       id="path4800"
       inkscape:connector-curvature="0" />
    <path
       style="fill:#000000"
       d="m 111.94095,2219.041 c -5.39315,-0.9681 -9.52357,-6.6376 -12.714368,-11.1733 -3.138264,-6.4722 -8.551036,-8.9847 -11.365873,-0.1926 -1.52982,5.3267 -10.352827,2.8309 -10.787948,-2.3117 2.337059,-4.5233 5.124225,-10.6068 4.29316,-16.2462 -3.984062,-4.6401 1.266856,-8.1218 -2.382799,-12.8565 -5.805372,0.5154 -6.264311,14.4273 -12.89095,10.8017 -4.115949,0.8518 -8.61868,-6.7343 -2.889629,-9.8247 4.122117,-6.6477 8.307552,-15.6491 1.733777,-22.7318 -4.048562,-0.5322 -6.247435,9.0048 -9.632095,13.0997 -1.223419,6.0659 -15.292081,5.2734 -17.145135,-1.1559 -3.523771,-5.148 4.191961,-10.8433 5.586616,-15.4113 6.209604,-4.9038 1.366328,-11.1464 -1.541136,-15.4114 0.19591,-5.8022 -0.84485,-10.4923 3.732441,-15.8929 1.86803,-8.238 -10.453783,7.5779 -12.858855,-4.6235 2.24123,-7.3208 1.818509,-15.4944 -3.010026,-21.8648 -4.922013,-4.8658 -6.926572,3.0089 -9.054171,6.9351 -3.478743,5.8707 3.575912,12.5595 -1.733777,18.8789 -7.496101,2.4064 -14.3789929,-5.477 -7.641465,5.394 -2.0824053,5.8934 4.751594,9.4838 -1.027421,14.8334 -5.5002467,5.5715 -1.3457966,9.6345 2.311703,15.7966 4.138468,4.7659 5.333711,12.2641 0.0661,15.9893 -8.36336,1.5163 -15.5666381,-1.0244 -17.7891591,-9.8247 -3.217718,-5.5583 -4.487367,-12.8209 -7.3203929,-2.8896 -5.621469,5.692 0.516253,13.2304 3.8528379,17.723 6.160993,6.1429 0.881337,15.4997 -7.3203929,11.5585 -2.450806,-1.5532 -6.485976,-13.191 -9.824738,-9.2468 2.229796,7.0871 -3.594393,14.6872 0,20.0348 4.867075,4.3741 3.400816,11.3438 -2.119061,12.5217 -4.412463,1.9196 -6.717377,-3.115 -9.824737,-7.8983 -3.386179,-4.1626 -7.25639,6.464 -10.787949,9.6321 -1.192669,1.8166 -10.870541,11.6813 -12.136441,2.3117 -0.254538,-6.5483 1.982074,-11.4405 5.201332,-17.7231 6.305813,-9.4983 -10.516669,-2.2166 -10.787947,-8.4762 -8.678318,-10.3628 9.788162,-5.5552 13.677576,-12.1365 1.390212,-8.3224 8.639024,-1.8876 12.521726,-9.0541 -0.311965,-5.6343 -17.110657,2.1308 -17.145132,-8.091 0.698704,-9.2918 9.078031,-4.8572 14.993969,-6.0393 4.195036,0.5459 9.10742,-0.5695 11.9759,-5.9045 6.190683,-11.5954 -21.965791,2.7015 -21.768537,-10.7879 -5.716904,-4.9366 1.368709,-13.1476 5.779258,-12.7144 4.071214,1.3736 7.570858,0.1746 11.365873,0.5779 4.477973,1.6395 9.73909,-2.5761 11.365873,-9.0541 4.274617,-2.3171 7.256995,-4.0956 10.98059,-5.2014 4.8577279,1.5879 10.2689509,-3.5358 2.3117029,-2.3117 -6.3530219,-5.14 1.499363,-15.7805 7.320393,-12.5217 4.354065,-3.605 8.6174274,-9.0882 11.1732308,-14.2555 -1.2446517,-3.5709 -9.7533258,-1.3234 -13.4849338,-1.7338 -4.199829,-1.6009 -6.5583249,8.218 -11.3658739,6.7425 -9.090552,6.1109 -6.539688,-11.3717 -8.668886,-8.4763 -3.074245,5.5786 -7.737482,5.491 -10.787947,11.3659 -6.4752,0.7283 -15.801539,-2.362 -17.145132,7.513 -3.617623,3.8082 -4.580967,13.1893 -11.365873,11.3659 -6.536964,-0.3246 -12.947063,-10.6125 -7.513035,-15.9893 3.291233,-5.8291 13.1527,-17.6011 -1.733777,-12.5217 -6.038434,1.756 -7.905377,9.2219 -11.365873,14.8334 -7.861533,8.3894 -15.272183,-5.1097 -7.513033,-10.7879 5.211128,-11.3964 -6.97687,-1.3608 -11.4622,0.1204 -3.81943,-0.015 -8.42971,1.4679 -10.49898,7.2 -2.92915,7.4906 -12.77575,-0.9527 -8.72392,-6.9993 6.78067,-5.8637 0.64646,-8.4518 -3.99045,-8.2836 -6.14037,0.9419 -16.06562,-0.4024 -18.49362,-6.6783 2.33482,-6.1423 12.28898,-7.8477 18.49362,-6.6782 6.47958,-1.9426 7.68195,-2.0814 3.72441,-9.889 -6.87708,-6.6565 9.75087,-13.9351 10.91638,-4.2381 2.45202,7.1792 6.71615,4.8507 12.71437,8.4762 10.68926,8.3385 5.9889,-2.0156 3.97138,-9.1184 -2.11524,-5.9123 8.616354,-11.6249 10.862043,-3.9812 3.837354,7.101 6.644693,16.4695 15.989279,15.4113 9.16821,0.573 -2.862274,-10.4813 -4.04548,-15.4113 -2.883426,-4.7881 3.052615,-13.712 8.668886,-13.6776 6.784906,-1.8234 7.74825,7.5577 11.365873,11.3659 1.121993,10.037 10.756163,6.7249 17.145132,7.513 2.074118,6.0393 7.103231,4.3344 9.632096,10.21 5.276955,6.8273 -1.186455,-10.9928 8.933765,-8.3371 3.861596,-1.6501 6.910466,8.1115 11.1009939,7.1813 3.43637,1.2728 10.0215986,1.0723 14.6407858,0 -1.131621,-3.8866 -5.5014949,-10.8122 -10.0173798,-14.2555 -3.768322,0.3644 -14.6933499,-4.2814 -9.6320959,-11.9438 5.7082149,-2.1835 7.4537709,-3.908 0,-4.0455 -4.14152,0.7612 -6.601068,-3.8548 -10.980589,-4.0455 -3.007395,-4.8942 -6.015383,-12.3328 -11.365873,-10.21 -3.751856,-0.4128 -7.273072,0.8118 -11.173231,-0.5779 -3.783658,3.8064 -11.879693,-4.8064 -8.283604,-9.2468 0.495756,-14.4184 21.940675,-4.4172 24.080241,-10.788 -2.398007,-6.9307 -7.178508,-7.3609 -12.136441,-9.2468 -4.367446,0.2639 -14.812169,4.6263 -14.971033,-3.5318 -2.884258,-9.1214 10.755227,-7.77 16.126885,-7.2561 0.904654,-9.029 -11.877928,-3.2402 -11.503479,-10.4669 -3.443301,-7.8875 -21.242959,-1.4792 -15.851675,-11.8796 0.45739,-7.6644 16.313068,0.7291 12.521725,-7.8983 -3.599892,-6.258 -3.876927,-11.0777 -6.935109,-17.1451 0.474111,-8.5349 11.043633,-7.7766 12.136441,1.1558 3.711124,-0.8111 5.938931,7.1764 9.632097,9.6321 3.619075,1.5963 5.628642,-11.1715 9.824737,-9.0542 3.730056,-1.9861 11.320857,6.1331 5.586616,10.2101 -6.584755,6.343 2.320283,12.1439 -1.733777,20.0347 2.266054,10.5087 6.67935,-5.8735 10.402663,-5.7792 3.931452,-5.6476 14.5793249,1.9097 8.4762449,8.0909 -2.263855,5.8568 -11.6430469,12.9419 -5.1462939,19.2 2.3020509,10.6889 4.4480169,4.12 7.4579969,-2.0549 2.244621,-9.4139 10.2414604,-11.2124 18.8675651,-9.8247 3.672409,5.7636 2.948592,10.8007 -1.144509,15.9893 -3.6574996,6.1621 -7.8119497,10.2251 -2.311703,15.7966 5.779015,5.3496 -1.0549843,8.94 1.027421,14.8334 -5.7796507,9.8884 -1.222421,4.408 7.063539,4.8161 6.487317,6.4865 -1.804789,13.9999 2.889629,20.6127 1.139234,4.0018 4.900013,10.8098 9.05417,5.2013 4.657311,-6.6492 3.807992,-14.6881 2.889629,-21.7685 2.349603,-12.1733 15.376566,5.1925 11.943799,-4.6234 -4.11774,-4.9637 -3.014014,-9.8587 -3.274913,-15.4114 4.216601,-4.5151 6.658714,-11.079 1.380607,-16.3264 -3.225296,-4.8154 -10.184778,-11.9146 -3.69231,-17.3859 6.236251,-3.2266 16.350899,-3.978 17.145135,5.2013 3.454293,2.8787 5.44418,15.0322 9.632096,7.3204 4.454682,-7.0212 -0.130034,-14.974 -4.045481,-20.998 -5.386183,-3.7589 0.356762,-9.857 4.045481,-9.8247 6.417349,-2.6114 7.35639,13.5467 12.521724,10.4027 2.739942,-4.4566 -0.762095,-8.5133 1.733778,-13.8703 4.312886,-6.2251 -7.15654,-11.5409 -2.504345,-16.5672 1.440784,-3.8299 9.646012,-4.2604 11.173231,2.3117 2.553299,9.5839 9.901255,-1.3021 11.008137,-5.9933 4.91117,-2.0672 8.15159,-10.1508 13.89618,-6.7933 3.81837,6.1748 -1.94255,10.2769 -3.13578,17.4101 -6.91444,8.6968 2.4572,8.4037 7.32039,9.632 8.99257,3.792 0.91978,15.2179 -6.06821,11.4382 -6.88819,-0.7192 -8.58077,9.1412 -15.31504,8.5966 -10.003545,7.2735 7.49646,2.0693 7.94649,6.7746 7.84762,-4.2612 8.70523,12.8785 0.91504,10.3705 -5.11003,1.5049 -17.245985,-3.2237 -20.612687,5.2014 -8.506509,9.1414 7.111607,4.7832 12.341115,5.7994 6.456372,-0.8296 13.170072,10.6709 7.693642,15.3912 -2.70105,6.5538 -10.681823,0.7698 -14.833426,2.8896 -7.00681,-2.4305 -9.205109,2.3054 -12.329082,7.8983 -3.43704,4.2335 -9.313686,4.7588 -12.329083,6.3572 -3.62156,-2.0522 -10.543377,4.5611 -2.889629,1.7338 6.297203,3.433 3.187958,15.0343 -2.504345,13.0996 -6.262981,-0.4576 -8.149234,6.3919 -13.340452,9.9211 -3.42737,7.8944 3.797654,6.6546 7.368553,6.6461 3.967926,-1.1771 6.60257,-1.1236 11.943799,-4.6234 3.446949,-8.1901 12.559629,-3.0614 12.361196,3.2268 -5.494198,8.7909 7.116967,-5.3874 5.939786,-3.8047 4.409751,-3.7138 10.653495,-7.361 18.867563,-5.5866 1.86778,-6.6664 7.52575,-12.1645 9.41869,-18.6381 4.18575,1.5791 7.40681,-2.0927 11.20534,3.2267 4.14118,5.566 4.23779,11.8416 -1.59617,16.8883 -3.65914,6.6399 -3.78272,11.1688 2.75202,8.1552 5.92025,2.343 9.70256,-5.525 11.9438,-10.788 0.72289,-7.971 13.02653,-7.9387 12.52172,0.578 0.60297,5.0313 -11.91609,15.6827 0,11.3658 3.65317,-5.9009 13.57806,-3.1114 15.79664,-8.4762 1.72525,-5.861 9.2955,-9.504 11.75116,-3.4676 5.81571,4.3494 -9.49399,12.6605 -0.57793,14.2555 5.5982,1.1201 7.98246,-0.084 13.87021,2.1833 3.57716,-3.7218 12.34132,4.0471 7.3204,8.6047 -2.32255,5.8422 -9.50398,1.4922 -13.29229,3.4675 -2.51218,1.3785 -15.19056,-0.9821 -9.05417,6.9351 5.57607,4.1488 1.35548,11.5841 -2.88963,11.9438 -7.18136,-0.2433 -5.08668,-11.2566 -12.04012,-9.7525 -4.38452,0.8109 -17.69532,-12.9725 -15.31503,-3.3471 4.64537,3.6795 7.36549,15.6989 -1.73378,15.4113 -5.77761,0.638 -6.91411,-9.1264 -9.82474,-13.0996 -3.87948,-4.3598 -9.19921,-5.071 -13.09964,-3.4676 -3.51956,0.5053 4.63453,10.8613 6.35717,15.4114 1.35938,3.2876 -3.54156,13.567 -7.51303,11.9438 -4.80243,2.8064 -8.18366,-0.6927 -10.78794,-7.3204 -3.1163,-7.4543 -6.10144,-12.8714 -15.12239,-10.4239 -5.676491,-3.4308 -9.99958,-4.5351 -13.003333,-10.7667 -7.746899,-6.0812 1.151721,3.5007 -4.29316,6.1003 -2.847764,7.7365 -10.210977,-2.1649 -14.200464,-3.7886 -4.017467,-2.6026 -6.344007,-0.5162 -10.595306,-2.8896 -4.625452,-0.9765 -8.029812,5.8614 -2.311703,8.4762 3.362549,5.6244 7.516283,10.4792 13.677576,7.513 5.104872,4.2833 4.343343,14.1721 -1.733777,13.6776 -6.085231,0.084 4.546253,4.5089 6.357183,1.7338 2.330752,4.9559 10.414985,2.1598 11.943799,9.2468 1.899808,7.1038 7.646601,5.5572 12.521729,6.0361 5.619615,0.079 12.451696,-3.2866 15.026066,4.7519 1.38826,7.7467 -6.41434,16.6133 -15.730535,13.0996 -9.398837,-2.0151 -10.354591,2.0519 -4.304225,8.6689 7.462497,3.5156 15.34533,1.9346 22.10565,1.8943 6.01431,7.0662 -1.02775,11.3984 -4.38259,12.9391 -7.266549,-1.826 -15.955274,2.0026 -5.393974,5.6509 5.594294,0.6833 8.665934,10.128 15.026064,8.0267 10.15719,-4.4785 10.15532,12.9579 1.15585,12.5217 -12.4878,-3.4703 -2.59488,9.4137 -2.57658,16.0856 5.00171,2.3499 2.46436,9.8466 -1.27625,10.3064 z"
       id="path4905"
       inkscape:connector-curvature="0" />
  </g>
</svg>
