<?xml version="1.0" encoding="UTF-8" standalone="no"?>
<svg
   xmlns:dc="http://purl.org/dc/elements/1.1/"
   xmlns:cc="http://creativecommons.org/ns#"
   xmlns:rdf="http://www.w3.org/1999/02/22-rdf-syntax-ns#"
   xmlns:svg="http://www.w3.org/2000/svg"
   xmlns="http://www.w3.org/2000/svg"
   xmlns:xlink="http://www.w3.org/1999/xlink"
   xmlns:sodipodi="http://sodipodi.sourceforge.net/DTD/sodipodi-0.dtd"
   xmlns:inkscape="http://www.inkscape.org/namespaces/inkscape"
   width="29.463mm"
   height="84.778mm"
   viewBox="0 0 29.463 84.778"
   version="1.1"
   id="svg1410"
   sodipodi:docname="frame_top.svg"
   inkscape:version="1.0.1 (c497b03c, 2020-09-10)">
  <metadata
     id="metadata1416">
    <rdf:RDF>
      <cc:Work
         rdf:about="">
        <dc:format>image/svg+xml</dc:format>
        <dc:type
           rdf:resource="http://purl.org/dc/dcmitype/StillImage" />
      </cc:Work>
    </rdf:RDF>
  </metadata>
  <defs
     id="defs1414" />
  <sodipodi:namedview
     pagecolor="#ffffff"
     bordercolor="#666666"
     borderopacity="1"
     objecttolerance="10"
     gridtolerance="10"
     guidetolerance="10"
     inkscape:pageopacity="0"
     inkscape:pageshadow="2"
     inkscape:window-width="1920"
     inkscape:window-height="1058"
     id="namedview1412"
     showgrid="false"
     showguides="true"
     inkscape:guide-bbox="true"
     inkscape:snap-global="true"
     inkscape:zoom="1.39"
     inkscape:cx="77.199085"
     inkscape:cy="37.149677"
     inkscape:window-x="0"
     inkscape:window-y="0"
     inkscape:window-maximized="0"
     inkscape:current-layer="svg1410">
    <sodipodi:guide
       position="25.06353,4.5067968"
       orientation="1,0"
       id="guide3725" />
    <sodipodi:guide
       position="28.293542,4.5276955"
       orientation="0,-1"
       id="guide3729" />
    <sodipodi:guide
       position="25.203252,154.51908"
       orientation="0,-1"
       id="guide3731" />
  </sodipodi:namedview>
  <title
     id="title10">Exported SVG</title>
  <style
     id="style12"><![CDATA[
polygon {
shape-rendering:crispEdges;
stroke-width:0.084778;
}
.s1 {
stroke:#000000;
stroke-width:0.129823;
stroke-linecap:round;
stroke-linejoin:round;
fill:none;
}
.s2 {
stroke:#19b219;
stroke-width:0.129823;
stroke-linecap:round;
stroke-linejoin:round;
fill:none;
}
.s3 {
stroke:#7f4c00;
stroke-width:0.129823;
stroke-linecap:round;
stroke-linejoin:round;
fill:none;
}
.s4 {
stroke:#00cc00;
stroke-width:0.129823;
stroke-linecap:round;
stroke-linejoin:round;
fill:none;
}
.s5 {
stroke:#000000;
stroke-width:0.086549;
stroke-linecap:round;
stroke-linejoin:round;
fill:none;
}
.s6 {
stroke:#ff19ff;
stroke-width:0.086549;
stroke-linecap:round;
stroke-linejoin:round;
fill:none;
}
.s7 {
stroke:#ff0000;
stroke-width:0.129823;
stroke-linecap:round;
stroke-linejoin:round;
fill:none;
}
.s8 {
stroke:#ffff00;
stroke-width:0.129823;
stroke-linecap:round;
stroke-linejoin:round;
fill:none;
}
.s9 {
stroke:#001919;
stroke-width:0.086549;
stroke-linecap:round;
stroke-linejoin:round;
fill:none;
}
.sa {
stroke:#006666;
stroke-width:0.086549;
stroke-linecap:round;
stroke-linejoin:round;
fill:none;
}
.sb {
stroke:#00ffff;
stroke-width:0.259647;
stroke-linecap:round;
stroke-linejoin:round;
fill:none;
}
.sc {
stroke:#ff0000;
stroke-width:0.692391;
stroke-linecap:round;
stroke-linejoin:round;
fill:none;
}
.sd {
stroke:#191919;
stroke-width:0.086549;
stroke-linecap:round;
stroke-linejoin:round;
fill:none;
}
.se {
stroke:#000000;
stroke-width:0.086549;
stroke-linecap:round;
stroke-linejoin:round;
stroke-dasharray:1.298,1.298;
fill:none;
}
.sf {
stroke:#000000;
stroke-width:0.259647;
stroke-linecap:round;
stroke-linejoin:round;
fill:none;
}
]]></style>
  <image
     sodipodi:absref="/Users/adrian/Dropbox/Projects/physibles/glasses/top.png"
     xlink:href="top.png"
     transform="rotate(-89.564185)"
     y="3.6409605"
     x="-87.365746"
     id="image3721"
     preserveAspectRatio="none"
     height="126.84135"
     width="160.69614" />
  <path
     d="m 25.061748,80.246244 c 0,0 0.444262,-1.662426 0.474,-2.515 0.02438,-0.698987 -0.07791,-1.404595 -0.244,-2.084 -0.143353,-0.586396 -0.381167,-1.149075 -0.643,-1.693 -0.412616,-0.857157 -0.906067,-1.619775 -1.288,-2.417 -0.393592,-0.821561 -0.704082,-1.692654 -0.979,-2.49 -0.585667,-1.698611 -1.183845,-3.452313 -1.695,-5.033 -0.438253,-1.355244 -0.86738,-2.713634 -1.273,-4.079 -0.523937,-1.763637 -0.860925,-3.451869 -1.334423,-5.229712 -0.590778,-2.218195 -1.091955,-4.439542 -1.591712,-6.68 -0.504846,-2.263274 -1.070544,-4.675966 -1.446718,-6.964147 -0.405647,-2.46746 -0.641424,-4.894886 -0.908711,-7.381141 -0.272874,-2.538223 -0.452085,-4.974583 -0.597571,-7.523282 -0.140991,-2.46994 -0.113371,-4.945586 -0.211336,-7.417604 -0.08814,-2.223034 0.0019,-4.72272 -0.395552,-6.942483 C 12.504972,9.4357662 11.624313,7.9729734 11.624313,5.2493335 l -4.9726288,-7.77e-5 c 0.00874,1.3277545 0.1322578,2.5914784 0.54023,3.765988 0.5050486,1.4539822 0.9437066,3.0100812 1.268,4.4060002 0.3389211,1.458884 0.3957485,6.72969 0.5293879,9.337855 0.2221809,4.336179 0.2938241,5.555214 0.7555365,9.710818 0.4265944,3.839534 0.8731474,7.698801 1.5529814,11.501672 0.662959,3.708472 1.308314,7.332652 2.204964,10.991655 1.344148,5.485131 1.979078,7.175853 3.440878,12.094918 1.008122,3.392403 1.788467,6.67991 2.324086,8.428082 0.334833,1.092839 0.464717,2.260733 0.978,3.187 0.196273,0.354192 0.445408,0.702008 0.778,0.933 0.428095,0.297321 0.963438,0.419154 1.475,0.519 0.839445,0.163841 2.563,0.121 2.563,0.121"
     class="s0"
     id="path1404"
     sodipodi:nodetypes="cssssssssssssssccsssssssssssc"
     style="fill:#ff0000;fill-opacity:0.229839;stroke:none;stroke-width:0;stroke-miterlimit:4;stroke-dasharray:none" />
  <path
     style="fill:none;stroke:#ff1010;stroke-width:0.0264583;stroke-linecap:butt;stroke-linejoin:miter;stroke-miterlimit:4;stroke-dasharray:none;stroke-opacity:1"
     d="M -2.6999003,5.2538986 H 22.758666"
     id="path3735"
     sodipodi:nodetypes="cc" />
</svg>
