<?xml version="1.0" encoding="UTF-8" standalone="no"?>
<svg
   xmlns:dc="http://purl.org/dc/elements/1.1/"
   xmlns:cc="http://creativecommons.org/ns#"
   xmlns:rdf="http://www.w3.org/1999/02/22-rdf-syntax-ns#"
   xmlns:svg="http://www.w3.org/2000/svg"
   xmlns="http://www.w3.org/2000/svg"
   width="70.312149mm"
   height="41.002918mm"
   viewBox="0 0 199.46709 116.29189"
   version="1.1"
   id="svg12">
  <metadata
     id="metadata18">
    <rdf:RDF>
      <cc:Work
         rdf:about="">
        <dc:format>image/svg+xml</dc:format>
        <dc:type
           rdf:resource="http://purl.org/dc/dcmitype/StillImage" />
        <dc:title></dc:title>
      </cc:Work>
    </rdf:RDF>
  </metadata>
  <defs
     id="defs16" />
  <path
     d="M 100,0.01569367 C 74.897162,-0.40765918 50.983706,3.7405514 32.533313,7.8203165 23.775186,9.7569204 10.158,9.7796071 0,9.7796071 V 38.412607 c 10.135,0 13.780965,4.837015 16.288,10.556 2.464965,5.623015 4.352059,11.786183 9.057456,24.344772 5.085382,13.572758 13.224586,31.104081 29.605544,35.842231 16.615042,4.80585 39.934538,6.89679 57.28454,7.12132 17.34499,0.22447 27.09682,-0.85507 36.90372,-2.87655 9.8071,-2.02152 17.8678,-3.47135 24.54091,-16.130263 9.21572,-17.482254 11.34899,-36.462027 13.8673,-54.189863 0.86951,-6.121021 6.1841,-8.608502 8.22514,-9.536422 2.16896,-0.98608 2.876,-1.236 3.138,-4.267 0.301,-3.482 0.35,-9.208 0.5,-12.015 0.15,-2.807 0.39394,-2.529719 -5.041,-3.706 C 188.90955,12.374113 178.21529,9.9263253 157.835,5.9956937 136.54736,1.8900666 119.29171,0.34104338 100,0.01569367 Z"
     id="path10"
     style="fill:#000000;fill-opacity:1" />
</svg>
