<?xml version="1.0" encoding="UTF-8" standalone="no"?>
<svg
  xmlns:svg="http://www.w3.org/2000/svg"
  xmlns="http://www.w3.org/2000/svg"
  width="70.5mm"
  height="17.766666mm"
  viewBox="0 0 75 18.9"
  version="1.1"
>
  <path
    d="
      m 72.481988,0
      c -0.685368,8.5135392e-4 -1.404595,0.08148743 -2.084,0.24757743 -0.586396,0.143353 -1.149075,0.381167 -1.693,0.643 -0.857157,0.41261597 -1.619775,0.90606697 -2.417,1.28799997 -0.821561,0.393592 -1.692654,0.704082 -2.49,0.979 -1.698611,0.585667 -3.452313,1.183845 -5.033,1.695 -1.355244,0.438253 -2.713634,0.86738 -4.079,1.273 -1.763637,0.523937 -3.451869,0.860925 -5.229712,1.334423 -2.218195,0.590778 -4.439542,1.091955 -6.68,1.591713 -2.263274,0.504846 -4.675966,1.0705436 -6.964147,1.4467176 -2.46746,0.405647 -4.894886,0.641424 -7.381141,0.908711 -2.538223,0.272874 -4.974583,0.452085 -7.523282,0.597571 -2.46994,0.140991 -4.945586,0.113371 -7.417604,0.211336 -2.223034,0.08814 -4.72272,-0.0019 -6.942483,0.395552
      C 4.18651,13.034354 2.723718,13.915013 7.8e-5,13.915013
      L 0,18.9
      c 1.7060935,0 2.591478,-0.144616 3.765988,-0.552589 1.453982,-0.505048 3.010081,-0.943706 4.406,-1.268 1.458884,-0.338921 6.72969,-0.395748 9.337855,-0.529387 4.336179,-0.222181 5.555214,-0.293825 9.710818,-0.755537 3.839534,-0.426594 7.698801,-0.873147 11.501672,-1.552981 3.708472,-0.662959 7.332652,-1.308314 10.991655,-2.204964 5.485131,-1.344148 7.175853,-1.979078 12.094918,-3.4408786 3.392403,-1.008122 6.67991,-1.788467 8.428082,-2.324086 1.092839,-0.334833 2.260733,-0.464717 3.187,-0.978 0.354192,-0.196273 0.702008,-0.445408 0.933,-0.778 0.297321,-0.428095 0.418224,-0.9636204 0.519,-1.475 0.118012,-0.5988424 0.124014,-2.56299997 0.124014,-2.56299997 0,0 -1.664922,-0.47863713 -2.518014,-0.47757743
      z
    "
  />
</svg>
